<svg width="121" height="29" viewBox="0 0 121 29" fill="none" xmlns="http://www.w3.org/2000/svg">
<path d="M23.5566 2.33789C23.9199 1.5293 24.1777 1.125 24.3301 1.125H24.418C24.5938 1.125 24.9512 1.3125 25.4902 1.6875C26.0293 2.0625 26.2988 2.41406 26.2988 2.74219C26.2988 3.19922 24.7988 6.73828 21.7988 13.3594C18.7988 19.9805 17.0762 23.6953 16.6309 24.5039C16.1973 25.3008 15.8984 25.834 15.7344 26.1035C15.5703 26.373 15.3477 26.6719 15.0664 27C14.5625 27.6211 13.9355 27.9316 13.1855 27.9316C12.8809 27.9316 12.6113 27.9668 12.377 28.0371C12.1426 28.1191 12.002 28.1602 11.9551 28.1602C11.5801 28.1602 11.3926 28.0723 11.3926 27.8965C11.3926 27.8613 11.4395 27.7148 11.5332 27.457C11.6387 27.2109 12.9805 24.3691 15.5586 18.9316C12.8047 18.8262 10.3848 18.7441 8.29883 18.6855C6.29492 21.2051 4.47852 23.8418 2.84961 26.5957C2.65039 26.9824 2.46289 27.252 2.28711 27.4043C2.11133 27.5684 1.87109 27.6504 1.56641 27.6504C1.26172 27.6504 0.933594 27.4922 0.582031 27.1758C0.230469 26.8711 0.0546875 26.5137 0.0546875 26.1035C0.0546875 24.9316 1.56641 22.4238 4.58984 18.5801C3.17188 18.5801 2.26953 18.6152 1.88281 18.6855C1.50781 18.7559 1.26758 18.791 1.16211 18.791C0.845703 18.791 0.6875 18.5273 0.6875 18C0.6875 17.4609 0.998047 16.9922 1.61914 16.5938C2.25195 16.1836 3.0957 15.9785 4.15039 15.9785C4.23242 15.9785 4.37891 15.9727 4.58984 15.9609C5.31641 15.9258 6.06055 15.8965 6.82227 15.873C9.37695 12.873 12.0488 10.0898 14.8379 7.52344C17.627 4.95703 20.041 3.1582 22.0801 2.12695C22.4082 1.96289 22.666 1.88672 22.8535 1.89844C23.0527 1.89844 23.2871 2.04492 23.5566 2.33789ZM22.3262 4.81641C18.0488 8.0625 14.1406 11.748 10.6016 15.873C12.6758 15.9199 14.7734 16.0078 16.8945 16.1367C19.0273 11.6484 20.8379 7.875 22.3262 4.81641ZM36.0807 1.91602C33.608 5.63086 31.1998 9.51562 28.8561 13.5703C29.3952 13.2891 29.9987 13.0898 30.6666 12.9727C31.3463 12.8438 31.8209 12.7793 32.0905 12.7793C32.3717 12.7793 32.612 12.791 32.8112 12.8145C33.0104 12.8262 33.2623 12.8906 33.567 13.0078C33.8834 13.1133 34.153 13.2656 34.3756 13.4648C34.9147 13.9453 35.1842 14.625 35.1842 15.5039C35.1842 16.3828 34.944 17.3496 34.4635 18.4043C33.9948 19.4473 33.3502 20.4961 32.5299 21.5508C31.7213 22.6055 30.8307 23.5898 29.858 24.5039C28.8971 25.4062 27.86 26.1445 26.7467 26.7188C25.6334 27.293 24.5963 27.5801 23.6354 27.5801C23.1901 27.5801 22.6745 27.293 22.0885 26.7188C21.5143 26.1445 21.2272 25.3887 21.2272 24.4512C21.2272 23.5137 21.6315 22.0605 22.4401 20.0918C23.2487 18.123 24.2272 16.125 25.3756 14.0977C26.5358 12.0586 27.7135 10.0723 28.9088 8.13867C30.1159 6.20508 31.1413 4.62305 31.985 3.39258C32.8288 2.16211 33.3444 1.45312 33.5319 1.26562C33.7194 1.07812 34.0592 0.919922 34.5514 0.791016C35.0553 0.662109 35.4889 0.603516 35.8522 0.615234C36.2155 0.615234 36.3971 0.779297 36.3971 1.10742C36.3971 1.31836 36.2916 1.58789 36.0807 1.91602ZM31.3346 18.791C31.8151 17.9473 32.0553 17.1797 32.0553 16.4883C32.0553 15.7969 31.8327 15.4512 31.3873 15.4512C30.9538 15.4512 30.2799 15.6445 29.3659 16.0312C28.4635 16.4062 27.9479 16.5938 27.819 16.5938C27.6901 16.5938 27.5202 16.4883 27.3092 16.2773C25.0241 20.3906 23.8815 23.0156 23.8815 24.1523C23.8815 24.6797 24.0514 24.9434 24.3913 24.9434C25.1998 24.9434 26.3659 24.2695 27.8893 22.9219C29.4127 21.5625 30.5612 20.1855 31.3346 18.791ZM47.3391 13.6055C47.6907 13.6055 48.0481 13.7637 48.4114 14.0801C48.7864 14.3965 48.9739 14.8828 48.9739 15.5391C48.9739 16.1836 48.7454 17.0273 48.2884 18.0703C47.8313 19.1016 47.2044 20.1562 46.4075 21.2344C45.6106 22.3008 44.7317 23.3086 43.7708 24.2578C42.8216 25.1953 41.7903 25.9688 40.677 26.5781C39.5755 27.1758 38.5735 27.4746 37.6712 27.4746C36.7688 27.4746 36.0423 27.1934 35.4915 26.6309C34.9524 26.0566 34.6829 25.2656 34.6829 24.2578C34.6829 23.2383 34.929 22.1133 35.4212 20.8828C35.9251 19.6523 36.5696 18.5684 37.3548 17.6309C38.1399 16.6816 38.9895 15.832 39.9036 15.082C41.8138 13.5469 43.4895 12.7793 44.9309 12.7793C45.5755 12.7793 46.0618 12.9375 46.3899 13.2539C46.5071 13.3594 46.5657 13.4531 46.5657 13.5352V13.6406C46.7298 13.6172 46.9876 13.6055 47.3391 13.6055ZM45.5638 15.9434H45.4407C45.0305 15.9434 44.8255 15.6445 44.8255 15.0469C43.97 15.3281 43.0735 15.8203 42.136 16.5234C41.1985 17.2266 40.3606 18.0586 39.6223 19.0195C38.1223 20.9414 37.3606 22.5645 37.3372 23.8887C37.3372 24.5449 37.5774 24.873 38.0579 24.873C38.5384 24.873 39.2532 24.5566 40.2024 23.9238C41.1516 23.291 42.0891 22.3887 43.0149 21.2168C43.9524 20.0449 44.6497 19.0312 45.1067 18.1758C45.5755 17.3086 45.8098 16.7227 45.8098 16.418C45.8098 16.1016 45.7278 15.9434 45.5638 15.9434ZM63.8359 21.4805C64.0585 21.4805 64.1933 21.6504 64.2402 21.9902C64.287 22.3301 64.3105 22.6816 64.3105 23.0449C64.3105 23.4082 64.2753 23.6602 64.205 23.8008C63.8652 24.457 63.121 25.2598 61.9726 26.209C60.8241 27.1465 59.7343 27.6152 58.703 27.6152C58.0702 27.6152 57.4843 27.4219 56.9452 27.0352C56.4062 26.6602 56.1366 25.998 56.1366 25.0488C56.1366 24.0996 56.3886 23.168 56.8925 22.2539C53.9863 25.8984 51.707 27.7207 50.0546 27.7207C49.3984 27.7207 48.8652 27.4863 48.455 27.0176C48.0566 26.5488 47.8573 26.0684 47.8573 25.5762C47.8573 25.0723 47.9277 24.5566 48.0683 24.0293C48.2089 23.4902 48.3554 23.0098 48.5077 22.5879C48.6718 22.166 48.9062 21.6445 49.2109 21.0234C49.5273 20.4023 49.7616 19.9512 49.914 19.6699C50.0663 19.3887 50.3066 18.9668 50.6347 18.4043C50.9745 17.8301 51.414 17.0625 51.953 16.1016C52.5038 15.1406 52.955 14.4316 53.3066 13.9746C53.6698 13.5059 54.0214 13.2715 54.3613 13.2715C54.7011 13.2598 54.9999 13.3945 55.2577 13.6758C55.5155 13.957 55.6445 14.1855 55.6445 14.3613C55.6445 14.5371 55.2519 15.3281 54.4667 16.7344C52.1464 20.9297 50.9863 23.373 50.9863 24.0645C50.9863 24.2402 51.0507 24.3281 51.1796 24.3281C51.7421 24.3281 53.1425 23.1094 55.3808 20.6719C57.6191 18.2344 58.914 16.6758 59.2655 15.9961C59.6171 15.3047 59.957 14.7246 60.2851 14.2559C60.6249 13.7871 60.8769 13.5 61.0409 13.3945C61.5448 13.0664 62.1952 12.8906 62.9921 12.8672C63.121 12.8672 63.2206 12.873 63.2909 12.8848C63.3613 12.8965 63.4433 12.9961 63.537 13.1836C63.6308 13.3711 63.6777 13.5176 63.6777 13.623C63.5722 13.9512 63.1034 14.8242 62.2714 16.2422C61.4511 17.6602 60.9941 18.4629 60.9003 18.6504C59.5175 21.5098 58.8261 23.373 58.8261 24.2402C58.8261 24.7324 59.0136 24.9785 59.3886 24.9785C60.0683 24.8848 60.8886 24.3398 61.8495 23.3438C62.2011 22.9805 62.5468 22.6113 62.8866 22.2363C63.2382 21.8613 63.455 21.6445 63.537 21.5859C63.6191 21.5156 63.7187 21.4805 63.8359 21.4805ZM75.6392 4.35938L76.3599 4.53516C76.4654 4.53516 76.5591 4.58789 76.6412 4.69336C76.7232 4.79883 76.7642 4.89844 76.7642 4.99219C76.7642 5.08594 76.6412 5.33789 76.3951 5.74805C76.149 6.1582 75.856 6.62695 75.5162 7.1543C75.188 7.66992 75.0123 7.95117 74.9888 7.99805C75.9029 7.92773 76.5474 7.89258 76.9224 7.89258C77.3091 7.89258 77.5728 7.92188 77.7134 7.98047C77.8541 8.02734 78.0123 8.17383 78.188 8.41992C78.3755 8.6543 78.5455 8.83594 78.6978 8.96484C78.8502 9.08203 78.9263 9.26367 78.9263 9.50977C78.9263 9.75586 78.774 9.9668 78.4693 10.1426C78.1763 10.3066 77.8599 10.4062 77.5201 10.4414C74.8013 10.7109 73.3013 10.8516 73.0201 10.8633C72.0709 12.3164 70.7408 14.584 69.0298 17.666C67.3306 20.7363 66.4283 22.6582 66.3228 23.4316C66.2759 23.7832 66.2525 24.0703 66.2525 24.293C66.2525 24.75 66.4927 24.9785 66.9732 24.9785C67.4537 24.9785 67.9869 24.7969 68.5728 24.4336C69.1587 24.0586 69.6978 23.6543 70.19 23.2207C71.5025 22.0488 72.2056 21.4629 72.2994 21.4629C72.6041 21.4629 72.7564 21.9902 72.7564 23.0449C72.7564 23.6191 72.4927 24.1348 71.9654 24.5918C70.7818 25.6113 69.7857 26.3789 68.9771 26.8945C68.1685 27.4102 67.3599 27.668 66.5513 27.668C66.3755 27.668 66.2115 27.6504 66.0591 27.6152C65.1216 27.4395 64.4302 27.0996 63.9849 26.5957C63.5513 26.0801 63.3345 25.3887 63.3345 24.5215C63.3462 23.6543 63.6041 22.6055 64.108 21.375C64.6236 20.1328 65.2681 18.8145 66.0416 17.4199C67.3072 15.1465 68.5728 13.0137 69.8384 11.0215L69.1705 11.1094C67.8111 11.2617 67.0201 11.3379 66.7974 11.3379H66.6392C66.2994 11.3379 65.9712 11.2734 65.6548 11.1445C65.3384 11.0039 65.1802 10.834 65.1802 10.6348C65.1802 10.4355 65.2623 10.2422 65.4263 10.0547C65.6021 9.86719 65.7076 9.7207 65.7427 9.61523C65.8248 9.35742 66.1295 9.07031 66.6568 8.75391C67.1959 8.4375 67.6002 8.27344 67.8697 8.26172C68.1392 8.23828 68.397 8.2207 68.6431 8.20898C68.9009 8.19727 69.1822 8.18555 69.4869 8.17383C69.8033 8.16211 70.0435 8.15039 70.2076 8.13867L71.7896 8.06836C72.774 6.5918 73.4478 5.64258 73.8111 5.2207C74.1861 4.79883 74.4029 4.57031 74.4615 4.53516C74.5201 4.48828 74.6373 4.46484 74.813 4.46484L75.6392 4.35938ZM106.119 17.2793C106.435 17.2793 106.594 17.6953 106.594 18.5273C106.594 19.3594 106.541 19.916 106.435 20.1973C106.084 21.0996 105.264 22.1133 103.974 23.2383C102.697 24.3516 101.291 25.3008 99.7557 26.0859C98.2323 26.8594 96.9784 27.2461 95.994 27.2461C95.5252 27.2461 95.1268 27.0645 94.7987 26.7012C94.4823 26.3379 94.3241 25.8633 94.3241 25.2773C94.3241 24.2344 94.9217 22.6406 96.117 20.4961C97.3123 18.3516 98.7596 16.1133 100.459 13.7812C97.6346 17.0625 95.6307 19.2773 94.4471 20.4258C93.2752 21.5742 92.2264 22.5586 91.3006 23.3789C90.3748 24.1875 89.5428 24.8379 88.8045 25.3301C87.0467 26.4902 85.6522 27.0703 84.6209 27.0703C83.5897 27.0703 82.8573 26.7891 82.4237 26.2266C81.9901 25.6523 81.7733 25.0195 81.7733 24.3281C81.7733 22.3008 82.9569 19.4531 85.3241 15.7852C87.703 12.1055 89.8885 9.09961 91.8807 6.76758C90.1932 8.25586 89.0272 9 88.3827 9C87.7498 9 87.2752 8.80664 86.9588 8.41992C86.6424 8.02148 86.4842 7.57617 86.4842 7.08398C86.4842 6.58008 86.7186 6.11133 87.1873 5.67773C87.6561 5.23242 87.9959 5.00977 88.2069 5.00977C88.4295 5.00977 88.5409 5.02734 88.5409 5.0625C88.5409 5.09766 88.453 5.22656 88.2772 5.44922C88.1014 5.66016 88.0135 5.80664 88.0135 5.88867C88.0135 5.9707 88.0897 6.01172 88.242 6.01172C88.6991 6.01172 89.6952 5.54883 91.2303 4.62305C92.7655 3.69727 94.078 2.79492 95.1678 1.91602C95.4608 1.66992 95.7948 1.54688 96.1698 1.54688C96.5565 1.54688 96.9256 1.64062 97.2772 1.82812C97.3006 1.76953 97.4002 1.78125 97.576 1.86328C97.7518 1.94531 97.9276 2.07422 98.1034 2.25C98.2791 2.42578 98.367 2.58984 98.367 2.74219C98.367 2.89453 98.3202 3.03516 98.2264 3.16406C93.3514 9.46875 90.287 13.5762 89.0331 15.4863C86.4901 19.3652 85.2186 21.8848 85.2186 23.0449C85.2186 23.4551 85.3885 23.6602 85.7284 23.6602C86.0799 23.6602 87.0584 23.0039 88.6639 21.6914C93.0702 18.1055 99.2459 11.7773 107.191 2.70703C107.508 2.34375 107.806 2.17383 108.088 2.19727H108.246C108.293 2.19727 108.422 2.17969 108.633 2.14453C108.855 2.09766 109.213 2.07422 109.705 2.07422C110.877 2.07422 111.463 2.29102 111.463 2.72461C111.463 2.91211 111.287 3.24023 110.935 3.70898C110.596 4.17773 109.881 5.18555 108.791 6.73242C107.701 8.2793 106.342 10.2422 104.713 12.6211C103.096 15 101.695 17.1855 100.512 19.1777C99.3397 21.1699 98.7538 22.4355 98.7538 22.9746C98.7538 22.9863 98.7713 22.9922 98.8065 22.9922C98.8534 22.9922 99.0409 22.9102 99.369 22.7461C100.377 22.2188 101.555 21.3809 102.902 20.2324C104.262 19.084 105.117 18.3047 105.469 17.8945C105.832 17.4844 106.049 17.2793 106.119 17.2793ZM108.43 23.4844L108.413 23.7656C108.413 24.0586 108.524 24.3105 108.747 24.5215C108.969 24.7324 109.174 24.8379 109.362 24.8379C110.768 24.8379 112.01 24.627 113.088 24.2051C114.178 23.7832 114.723 23.3613 114.723 22.9395C114.723 22.7402 114.524 22.5703 114.125 22.4297C113.739 22.2773 113.077 22.0957 112.139 21.8848C111.213 21.6621 110.54 21.4922 110.118 21.375C109.696 21.2461 109.362 21.1289 109.116 21.0234C108.87 20.918 108.618 20.7715 108.36 20.584C107.809 20.1973 107.534 19.623 107.534 18.8613C107.534 18.0879 107.815 17.3262 108.377 16.5762C108.952 15.8145 109.666 15.1641 110.522 14.625C111.377 14.0859 112.297 13.6113 113.282 13.2012C115.227 12.3926 116.862 11.9883 118.186 11.9883C119.487 11.9883 120.29 12.2695 120.594 12.832C120.688 13.0312 120.735 13.2539 120.735 13.5V13.623C120.735 14.2441 120.6 14.7305 120.331 15.082C120.073 15.4336 119.657 15.75 119.082 16.0312C118.52 16.3125 118.069 16.4531 117.729 16.4531C117.401 16.4531 117.19 16.4297 117.096 16.3828C117.014 16.3359 116.944 16.2773 116.885 16.207C116.827 16.125 116.75 16.0664 116.657 16.0312C116.575 15.9961 116.534 15.9082 116.534 15.7676C116.534 15.627 116.592 15.4863 116.709 15.3457C116.827 15.1934 116.909 15.0352 116.956 14.8711C116.182 14.9062 115.374 15.0879 114.53 15.416C113.686 15.7324 112.959 16.0898 112.35 16.4883C111.752 16.8867 111.254 17.2676 110.856 17.6309C110.457 17.9941 110.258 18.2637 110.258 18.4395C110.258 18.6035 110.528 18.7383 111.067 18.8438C113.493 19.3242 115.086 19.7402 115.848 20.0918C116.61 20.4434 117.137 20.8418 117.43 21.2871C117.723 21.7324 117.87 22.1367 117.87 22.5C117.87 23.25 117.571 23.959 116.973 24.627C116.375 25.2949 115.637 25.8398 114.758 26.2617C112.872 27.1875 111.225 27.6504 109.819 27.6504C108.424 27.6504 107.457 27.4336 106.918 27C106.391 26.5781 106.127 26.0742 106.127 25.4883C106.127 24.9023 106.274 24.3633 106.567 23.8711C106.872 23.3672 107.258 23.1152 107.727 23.1152C108.196 23.1152 108.43 23.2383 108.43 23.4844Z" fill="#7EB693"/>
</svg>
