<svg width="164" height="38" viewBox="0 0 164 38" fill="none" xmlns="http://www.w3.org/2000/svg">
<path d="M7.14258 9.80859C7.14258 10.5703 8.47266 10.9512 11.1328 10.9512C11.7891 10.9512 12.2754 10.8809 12.5918 10.7402C13.4238 10.3418 14.4434 10.1426 15.6504 10.1426C16.8691 10.1426 17.4785 10.4531 17.4785 11.0742C17.4785 11.3203 17.373 11.6836 17.1621 12.1641C16.9629 12.6328 16.8105 12.9199 16.7051 13.0254C16.6113 13.1309 16.2363 13.2773 15.5801 13.4648C14.9238 13.6406 14.4961 13.7402 14.2969 13.7637C14.1094 13.7754 13.9805 13.7871 13.9102 13.7988C13.8516 13.8105 13.7754 13.8223 13.6816 13.834C13.5996 13.8457 13.4062 13.8809 13.1016 13.9395C12.7969 13.9863 12.5742 13.9805 12.4336 13.9219C8.55469 15.832 5.88867 17.9297 4.43555 20.2148C3.7793 21.2461 3.45117 22.1309 3.45117 22.8691C3.45117 24.0293 4.25391 24.6094 5.85938 24.6094C7.11328 24.6094 8.70703 24.1172 10.6406 23.1328C12.5742 22.1484 14.2852 20.959 15.7734 19.5645C17.2734 18.1582 18.0234 16.9395 18.0234 15.9082C18.0234 15.5801 18.2695 15.416 18.7617 15.416C19.8984 15.416 20.4668 16.0898 20.4668 17.4375C20.4668 18.0703 20.1914 18.8262 19.6406 19.7051C19.0898 20.5723 18.3223 21.457 17.3379 22.3594C16.3535 23.25 15.2578 24.082 14.0508 24.8555C12.8438 25.6289 11.502 26.2617 10.0254 26.7539C8.56055 27.2461 7.31836 27.4922 6.29883 27.4922C5.2793 27.4922 4.45312 27.3926 3.82031 27.1934C3.19922 27.0059 2.61328 26.7188 2.0625 26.332C0.867188 25.5 0.269531 24.2402 0.269531 22.5527C0.269531 21.6387 0.515625 20.7129 1.00781 19.7754C1.5 18.8262 2.14453 17.9648 2.94141 17.1914C4.40625 15.7383 5.97656 14.5312 7.65234 13.5703C5.23828 13.0195 4.03125 11.7773 4.03125 9.84375C4.03125 7.66406 5.70703 5.67188 9.05859 3.86719C10.9219 2.87109 12.9434 2.15625 15.123 1.72266C16.1543 1.51172 17.0156 1.40625 17.707 1.40625C19.1133 1.40625 20.1738 1.51758 20.8887 1.74023C21.3223 1.95117 21.6738 2.25 21.9434 2.63672C22.2129 3.01172 22.3477 3.33984 22.3477 3.62109C22.3477 3.89062 22.3125 4.13672 22.2422 4.35938C22.1719 4.58203 22.0547 4.75781 21.8906 4.88672C21.6562 5.0625 21.3926 5.19727 21.0996 5.29102C20.8066 5.38477 20.6367 5.44336 20.5898 5.4668C19.6758 5.85352 18.8906 6.04688 18.2344 6.04688C17.0625 6.04688 16.4238 5.89453 16.3184 5.58984C16.3418 5.28516 16.4707 4.93359 16.7051 4.53516C15.5918 4.58203 14.4375 4.81055 13.2422 5.2207C12.0469 5.61914 11.0098 6.09375 10.1309 6.64453C9.26367 7.18359 8.54883 7.74609 7.98633 8.33203C7.42383 8.91797 7.14258 9.41016 7.14258 9.80859ZM31.5319 23.0977C32.1413 22.7109 32.5338 22.4473 32.7096 22.3066C32.8854 22.1543 33.0905 21.9785 33.3248 21.7793C33.5592 21.5801 33.7526 21.4805 33.9049 21.4805C34.1393 21.4805 34.2565 21.75 34.2565 22.2891C34.2565 22.8164 33.9928 23.3906 33.4655 24.0117C32.9498 24.6211 32.3053 25.1426 31.5319 25.5762C30.7584 25.998 29.9323 26.3672 29.0534 26.6836C27.3073 27.3281 25.819 27.6504 24.5885 27.6504C23.3698 27.6504 22.2682 27.252 21.2838 26.4551C20.2995 25.6465 19.8073 24.5977 19.8073 23.3086C19.8073 22.0078 20.1295 20.7129 20.7741 19.4238C21.4186 18.123 22.2448 16.9863 23.2526 16.0137C24.2721 15.0293 25.4498 14.2324 26.7858 13.623C28.1334 13.0137 29.4635 12.709 30.776 12.709C31.4088 12.709 31.9772 12.8906 32.4811 13.2539C32.985 13.6172 33.237 14.1152 33.237 14.748C33.237 15.3809 32.9205 16.1426 32.2877 17.0332C31.6666 17.9121 31.0338 18.3516 30.3893 18.3516C29.6393 18.3516 29.2643 17.9941 29.2643 17.2793C29.2643 17.0918 29.4401 16.7578 29.7916 16.2773C30.1432 15.7969 30.319 15.4746 30.319 15.3105C30.319 15.1348 30.2545 15.0469 30.1256 15.0469C29.4811 15.0469 28.7897 15.2695 28.0514 15.7148C27.3131 16.1602 26.6393 16.6289 26.0299 17.1211C25.4323 17.6133 24.8639 18.1641 24.3248 18.7734C23.153 20.0977 22.567 21.4746 22.567 22.9043C22.567 23.4785 22.7487 23.9766 23.112 24.3984C23.487 24.8086 24.108 25.0137 24.9752 25.0137C25.8541 25.0137 26.733 24.9141 27.612 24.7148C28.4909 24.5039 29.2116 24.2812 29.7741 24.0469C30.3483 23.8008 30.9342 23.4844 31.5319 23.0977ZM45.5501 13.6055C45.9016 13.6055 46.2591 13.7637 46.6223 14.0801C46.9973 14.3965 47.1848 14.8828 47.1848 15.5391C47.1848 16.1836 46.9563 17.0273 46.4993 18.0703C46.0423 19.1016 45.4153 20.1562 44.6184 21.2344C43.8216 22.3008 42.9427 23.3086 41.9817 24.2578C41.0325 25.1953 40.0013 25.9688 38.888 26.5781C37.7864 27.1758 36.7845 27.4746 35.8821 27.4746C34.9798 27.4746 34.2532 27.1934 33.7024 26.6309C33.1634 26.0566 32.8938 25.2656 32.8938 24.2578C32.8938 23.2383 33.1399 22.1133 33.6321 20.8828C34.136 19.6523 34.7805 18.5684 35.5657 17.6309C36.3509 16.6816 37.2005 15.832 38.1145 15.082C40.0247 13.5469 41.7005 12.7793 43.1419 12.7793C43.7864 12.7793 44.2727 12.9375 44.6009 13.2539C44.718 13.3594 44.7766 13.4531 44.7766 13.5352V13.6406C44.9407 13.6172 45.1985 13.6055 45.5501 13.6055ZM43.7747 15.9434H43.6516C43.2415 15.9434 43.0364 15.6445 43.0364 15.0469C42.1809 15.3281 41.2845 15.8203 40.347 16.5234C39.4095 17.2266 38.5716 18.0586 37.8333 19.0195C36.3333 20.9414 35.5716 22.5645 35.5481 23.8887C35.5481 24.5449 35.7884 24.873 36.2688 24.873C36.7493 24.873 37.4641 24.5566 38.4134 23.9238C39.3626 23.291 40.3001 22.3887 41.2259 21.2168C42.1634 20.0449 42.8606 19.0312 43.3177 18.1758C43.7864 17.3086 44.0208 16.7227 44.0208 16.418C44.0208 16.1016 43.9388 15.9434 43.7747 15.9434ZM60.7369 17.3848C60.4087 17.3848 60.2447 17.1797 60.2447 16.7695C60.2447 16.4648 60.3795 16.1309 60.649 15.7676C60.9302 15.4043 61.1002 15.1641 61.1587 15.0469C61.2173 14.9297 61.3697 14.748 61.6158 14.502C61.8736 14.2559 62.0962 14.1094 62.2837 14.0625C62.483 14.0156 62.8814 13.9629 63.4791 13.9043C65.3072 13.7285 67.2994 13.6289 69.4556 13.6055C71.7994 10.0547 73.7095 7.41797 75.1861 5.69531C72.9947 6.09375 70.3052 6.29297 67.1177 6.29297C62.7935 6.29297 60.6314 5.32617 60.6314 3.39258C60.6314 2.8418 60.9068 2.36133 61.4576 1.95117C62.0201 1.54102 62.7232 1.33594 63.567 1.33594C64.4224 1.33594 64.8502 1.43555 64.8502 1.63477C64.8502 1.74023 64.7154 1.79297 64.4459 1.79297C64.188 1.79297 63.942 1.89258 63.7076 2.0918C63.4849 2.2793 63.3736 2.46094 63.3736 2.63672C63.3736 2.90625 63.9478 3.10547 65.0962 3.23438C66.2447 3.36328 68.0142 3.42773 70.4048 3.42773C72.8072 3.42773 75.4087 3.21094 78.2095 2.77734C79.1353 2.01562 80.0025 1.44141 80.8111 1.05469C81.6314 0.667969 82.4634 0.474609 83.3072 0.474609C84.1509 0.474609 84.7017 0.662109 84.9595 1.03711C85.2173 1.41211 85.3462 1.69336 85.3462 1.88086C85.358 2.06836 85.2232 2.31445 84.942 2.61914C84.6607 2.92383 84.2681 3.23438 83.7642 3.55078C82.5806 4.27734 81.0279 4.71094 79.106 4.85156C77.0552 7.44141 74.94 10.3711 72.7603 13.6406C73.6627 13.6758 74.5064 13.7461 75.2916 13.8516C76.0767 13.9453 76.4693 14.25 76.4693 14.7656C76.4693 14.9766 76.1353 15.3809 75.4673 15.9785C75.397 16.0605 75.3091 16.1836 75.2037 16.3477C75.0162 16.6289 74.8287 16.7695 74.6412 16.7695C74.4654 16.7695 74.2603 16.7461 74.0259 16.6992C73.1119 16.6641 72.4263 16.6465 71.9693 16.6465L70.8267 16.6641C66.7017 23.0859 64.5689 26.4258 64.4283 26.6836C64.2994 26.9297 64.1529 27.1172 63.9888 27.2461C63.8365 27.375 63.6431 27.4395 63.4087 27.4395C63.1744 27.4395 62.8462 27.3984 62.4244 27.3164C62.0025 27.2461 61.6861 27.1523 61.4752 27.0352C61.2642 26.9297 61.1587 26.7949 61.1587 26.6309C61.1587 26.4551 61.2115 26.209 61.317 25.8926C61.5982 25.1074 63.567 22.0781 67.2232 16.8047C64.8443 16.9219 62.9576 17.0449 61.563 17.1738L60.7369 17.3848ZM83.0611 1.51172C82.8736 1.57031 82.6451 1.66406 82.3755 1.79297L83.0611 1.51172ZM82.0324 17.4199C84.798 14.2793 87.1535 12.709 89.0988 12.709C89.5793 12.709 89.9719 12.8555 90.2766 13.1484C90.593 13.4297 90.7512 13.7988 90.7512 14.2559C90.7512 14.7129 90.423 15.4805 89.7668 16.5586C89.1223 17.625 88.5246 18.5273 87.9738 19.2656C87.6809 19.6406 87.3469 19.8281 86.9719 19.8281C86.6086 19.8281 86.3215 19.6934 86.1105 19.4238C85.9113 19.1543 85.8117 18.8379 85.8117 18.4746C85.8117 17.666 86.2453 16.752 87.1125 15.7324L87.0773 15.6973C86.6906 15.7324 85.7297 16.4941 84.1945 17.9824C82.6711 19.4707 81.3703 20.8066 80.2922 21.9902C79.2258 23.1621 78.0656 24.5918 76.8117 26.2793C76.4484 26.7832 76.1379 27.0352 75.8801 27.0352C75.634 27.0352 75.3059 26.959 74.8957 26.8066C74.4738 26.6426 74.2219 26.5254 74.1398 26.4551C74.0461 26.3848 73.9992 26.2676 73.9992 26.1035C73.9992 25.9395 74.0461 25.752 74.1398 25.541C74.2336 25.3184 74.4094 25.0078 74.6672 24.6094C74.9133 24.2109 75.2883 23.5664 75.7922 22.6758C76.3078 21.7852 77.1047 20.4375 78.1828 18.6328C79.2609 16.8281 79.9055 15.7383 80.1164 15.3633C80.5617 14.5898 80.925 14.0273 81.2063 13.6758C81.7336 13.0078 82.6242 12.6738 83.8781 12.6738C84.1594 12.6738 84.3 12.8496 84.3 13.2012C84.3 13.752 83.7902 14.7891 82.7707 16.3125L82.0324 17.4199ZM100.674 7.69922C100.674 8.36719 100.363 9.04102 99.742 9.7207C99.1209 10.3887 98.4706 10.7227 97.7909 10.7227C97.1229 10.7227 96.7889 10.3711 96.7889 9.66797C96.7889 8.96484 97.0819 8.29688 97.6678 7.66406C98.2655 7.01953 98.9217 6.69727 99.6366 6.69727C99.953 6.69727 100.205 6.78516 100.392 6.96094C100.58 7.13672 100.674 7.38281 100.674 7.69922ZM97.826 23.0449C97.826 23.3965 97.7909 23.6484 97.7206 23.8008C97.1463 24.9727 96.2323 25.9219 94.9784 26.6484C93.7245 27.3633 92.6346 27.7207 91.7088 27.7207C90.7831 27.7207 89.9862 27.4102 89.3182 26.7891C88.6502 26.168 88.3163 25.5352 88.3163 24.8906C88.3163 24.2461 88.6385 23.3086 89.2831 22.0781C89.9276 20.8477 90.5721 19.7109 91.2166 18.668C91.8612 17.625 92.1834 17.0625 92.1834 16.9805C92.1834 16.8867 92.0604 16.7109 91.8143 16.4531C91.5799 16.1953 91.4627 16.0078 91.4627 15.8906C91.4627 15.7617 91.703 15.4395 92.1834 14.9238C92.6756 14.3965 93.2674 13.8809 93.9588 13.377C94.662 12.8613 95.1952 12.6035 95.5584 12.6035C95.9334 12.6035 96.2674 12.7676 96.5604 13.0957C96.8534 13.4238 96.9998 13.7227 96.9998 13.9922C96.9998 14.2617 95.6053 16.7988 92.8163 21.6035C92.7811 21.6738 92.6815 21.832 92.5174 22.0781C92.3651 22.3125 92.242 22.5117 92.1483 22.6758C92.0663 22.8281 91.9666 23.0156 91.8495 23.2383C91.6151 23.707 91.4979 24.0996 91.4979 24.416C91.4979 24.8145 91.7674 25.0137 92.3065 25.0137C92.8456 25.0137 93.4022 24.832 93.9764 24.4688C94.5623 24.0938 95.0663 23.6836 95.4881 23.2383C96.5897 22.0547 97.2166 21.4629 97.369 21.4629C97.6737 21.4629 97.826 21.9902 97.826 23.0449ZM108.997 13.8516C108.997 14.625 108.68 15.3047 108.047 15.8906C107.426 16.4766 106.717 16.7695 105.92 16.7695C105.663 16.7695 105.493 16.7109 105.411 16.5938C105.329 16.4648 105.288 16.3008 105.288 16.1016C105.288 15.9023 105.311 15.709 105.358 15.5215C104.936 15.6621 104.467 15.8789 103.952 16.1719C103.436 16.4648 102.803 16.8984 102.053 17.4727C101.303 18.0469 100.928 18.4746 100.928 18.7559C100.928 18.8496 101.063 18.8965 101.332 18.8965C101.614 18.8965 102.041 18.8027 102.616 18.6152C103.19 18.416 103.588 18.3164 103.811 18.3164C104.045 18.3164 104.198 18.3281 104.268 18.3516C104.42 18.4336 104.584 18.6152 104.76 18.8965C104.936 19.166 105.024 19.3828 105.024 19.5469C105.024 19.6992 104.872 19.9043 104.567 20.1621C104.262 20.4199 103.916 20.6191 103.53 20.7598C103.143 20.8887 102.885 20.9883 102.756 21.0586C100.284 22.4414 99.0473 23.3906 99.0473 23.9062C99.0473 24.8203 99.8266 25.2773 101.385 25.2773C102.381 25.2773 103.383 24.9609 104.391 24.3281C105.247 23.7891 106.014 23.2441 106.694 22.6934C107.385 22.1309 107.819 21.7852 107.995 21.6562C108.182 21.5273 108.323 21.4629 108.416 21.4629C108.721 21.4629 108.874 21.8027 108.874 22.4824C108.874 23.1621 108.832 23.6133 108.75 23.8359C108.668 24.0469 108.434 24.3105 108.047 24.627C105.54 26.666 103.166 27.6855 100.928 27.6855C99.7329 27.6855 98.7778 27.5215 98.063 27.1934C96.7505 26.5957 96.0942 25.6816 96.0942 24.4512C96.0942 22.834 97.2134 21.6094 99.4516 20.7773C99.0063 20.5781 98.7192 20.3262 98.5903 20.0215C98.4614 19.7051 98.3969 19.207 98.3969 18.5273C98.3969 17.8359 98.7134 17.1094 99.3462 16.3477C99.9907 15.5742 100.776 14.9414 101.702 14.4492C103.764 13.3359 105.604 12.7793 107.221 12.7793C107.608 12.7793 108 12.873 108.399 13.0605C108.797 13.248 108.997 13.5117 108.997 13.8516ZM117.864 24.293C117.864 24.8086 118.216 25.0664 118.919 25.0664C119.294 25.0664 119.763 24.8789 120.325 24.5039C120.9 24.1289 121.415 23.7188 121.872 23.2734C123.091 22.0664 123.782 21.4629 123.946 21.4629C124.251 21.4629 124.403 21.9023 124.403 22.7812C124.403 23.6602 124.128 24.2637 123.577 24.5918C121.901 26.1035 120.607 27.0234 119.692 27.3516C119.177 27.5273 118.609 27.6094 117.987 27.5977C117.366 27.5859 116.751 27.3164 116.142 26.7891C115.532 26.2617 115.228 25.623 115.228 24.873C115.228 24.1113 115.427 23.25 115.825 22.2891C116.224 21.3281 116.628 20.5078 117.038 19.8281C117.46 19.1367 117.976 18.3398 118.585 17.4375C119.194 16.5234 119.517 15.9551 119.552 15.7324L119.517 15.6973C119.13 15.7324 118.169 16.4941 116.634 17.9824C115.11 19.4707 113.851 20.7656 112.855 21.8672C111.859 22.9688 110.669 24.4395 109.286 26.2793C108.9 26.7832 108.583 27.0352 108.337 27.0352C108.091 27.0352 107.763 26.959 107.353 26.8066C106.931 26.6426 106.673 26.5254 106.579 26.4551C106.485 26.3848 106.439 26.2793 106.439 26.1387C106.439 25.998 106.48 25.8281 106.562 25.6289C106.644 25.418 106.726 25.248 106.808 25.1191C106.878 24.9785 107.001 24.7676 107.177 24.4863C107.353 24.2051 107.698 23.6133 108.214 22.7109C108.741 21.7969 109.544 20.4375 110.622 18.6328C111.7 16.8281 112.345 15.7383 112.556 15.3633C113.001 14.5898 113.364 14.0273 113.646 13.6758C114.173 13.0078 115.064 12.6738 116.317 12.6738C116.599 12.6738 116.739 12.8496 116.739 13.2012C116.739 13.752 116.23 14.7891 115.21 16.3125L114.472 17.4199C116.499 15.1699 118.21 13.7461 119.605 13.1484C120.284 12.8555 120.894 12.709 121.433 12.709C121.984 12.709 122.417 12.8555 122.734 13.1484C123.062 13.4414 123.226 13.7695 123.226 14.1328C123.226 14.4844 123.103 14.9121 122.857 15.416C122.61 15.9082 122.359 16.3535 122.101 16.752C121.855 17.1387 121.526 17.6309 121.116 18.2285C120.706 18.8262 120.484 19.1543 120.448 19.2129C120.413 19.2598 120.319 19.4004 120.167 19.6348C120.026 19.8574 119.921 20.0215 119.851 20.127C119.78 20.2324 119.663 20.4199 119.499 20.6895C119.335 20.9473 119.2 21.1641 119.095 21.3398C119.001 21.5156 118.878 21.7324 118.726 21.9902C118.585 22.248 118.468 22.4707 118.374 22.6582C118.292 22.8457 118.204 23.0508 118.11 23.2734C117.946 23.6836 117.864 24.0234 117.864 24.293ZM145.189 0.650391C145.412 0.650391 145.588 0.720703 145.717 0.861328C145.845 1.00195 145.91 1.14844 145.91 1.30078C145.91 1.44141 145.793 1.71094 145.558 2.10938C145.336 2.49609 144.814 3.35156 143.994 4.67578C143.174 5.98828 142.535 7.01953 142.078 7.76953C139.418 12.0938 137.332 15.75 135.82 18.7383C134.308 21.7266 133.552 23.5312 133.552 24.1523V24.293C133.552 24.7734 133.728 25.0137 134.08 25.0137C134.431 25.0137 134.853 24.8496 135.345 24.5215C135.849 24.1934 136.289 23.8418 136.664 23.4668C137.039 23.0918 137.414 22.7051 137.789 22.3066C138.176 21.8965 138.41 21.6562 138.492 21.5859C138.574 21.5156 138.679 21.4805 138.808 21.4805C139.008 21.4805 139.136 21.6094 139.195 21.8672C139.254 22.1133 139.283 22.4648 139.283 22.9219C139.283 23.3672 139.248 23.6602 139.177 23.8008C138.838 24.457 138.088 25.2598 136.927 26.209C135.779 27.1465 134.689 27.6152 133.658 27.6152C131.9 27.6152 131.021 26.8711 131.021 25.3828C131.021 24.457 131.373 23.2441 132.076 21.7441C131.127 22.9746 130.16 24.0234 129.176 24.8906C127.347 26.4844 125.76 27.2812 124.412 27.2812C123.662 27.2812 123.105 27.0176 122.742 26.4902C122.39 25.9629 122.215 25.207 122.215 24.2227C122.215 23.2266 122.601 22.0371 123.375 20.6543C124.148 19.2715 125.109 18.0293 126.258 16.9277C127.418 15.8145 128.701 14.8887 130.107 14.1504C131.513 13.4004 132.808 13.0254 133.992 13.0254C134.367 13.0254 134.806 13.2539 135.31 13.7109C135.65 13.1719 136.277 12.0938 137.191 10.4766C140.062 5.63672 141.961 2.68359 142.886 1.61719C143.379 0.972656 144.146 0.650391 145.189 0.650391ZM134.238 15.3633C132.551 15.7383 130.98 16.5234 129.527 17.7188C128.074 18.9141 126.984 20.168 126.258 21.4805C125.531 22.7812 125.168 23.625 125.168 24.0117C125.168 24.3984 125.25 24.5918 125.414 24.5918C126.117 24.5918 127.857 23.0215 130.635 19.8809C132.017 18.334 133.219 16.8281 134.238 15.3633ZM152.879 0.615234C153.442 0.615234 153.934 0.785156 154.356 1.125C154.789 1.45312 155.006 1.94531 155.006 2.60156C155.006 3.25781 154.643 4.28906 153.916 5.69531C153.19 7.08984 152.317 8.51953 151.297 9.98438C150.278 11.4375 149.123 12.9844 147.834 14.625C145.795 17.2266 143.838 19.5645 141.963 21.6387C141.952 21.7793 141.899 22.043 141.805 22.4297C141.723 22.8047 141.682 23.1855 141.682 23.5723C141.682 23.959 141.858 24.3105 142.209 24.627C142.573 24.9316 143.018 25.084 143.545 25.084C144.073 25.084 144.635 24.8965 145.233 24.5215C145.842 24.1465 146.37 23.7305 146.815 23.2734C147.987 22.0664 148.713 21.4629 148.995 21.4629C149.276 21.4629 149.416 21.8906 149.416 22.7461V23.0977C149.416 23.5547 149.334 23.8887 149.17 24.0996C148.186 25.3066 147.079 26.209 145.848 26.8066C144.618 27.3926 143.452 27.6855 142.35 27.6855C141.248 27.6855 140.411 27.3516 139.836 26.6836C139.262 26.0039 138.975 25.0781 138.975 23.9062C138.975 21.6211 139.584 18.9375 140.803 15.8555C142.034 12.7617 143.416 10.1309 144.952 7.96289C148.409 3.06445 151.051 0.615234 152.879 0.615234ZM152.088 3.5332C152.088 3.35742 152.03 3.26953 151.913 3.26953C151.502 3.26953 150.424 4.44141 148.678 6.78516C146.932 9.12891 145.666 10.998 144.881 12.3926C144.108 13.7871 143.375 15.5391 142.684 17.6484C144.067 16.0078 145.977 13.4531 148.414 9.98438C150.864 6.50391 152.088 4.35352 152.088 3.5332ZM153.274 32.8359C153.216 32.8945 153.034 33.1875 152.73 33.7148C152.437 34.2539 152.12 34.793 151.78 35.332C151.44 35.8828 151.019 36.4043 150.515 36.8965C150.023 37.3887 149.606 37.6523 149.267 37.6875C148.939 37.7344 148.728 37.7578 148.634 37.7578C147.556 37.7578 147.017 37.2129 147.017 36.123C147.017 34.8457 147.679 33.3516 149.003 31.6406C149.507 30.9961 150.14 30.2988 150.901 29.5488C151.663 28.8105 152.079 28.3887 152.149 28.2832C152.22 28.1895 153.099 26.5488 154.786 23.3613C153.661 24.5918 152.618 25.5938 151.657 26.3672C150.696 27.1289 149.771 27.5566 148.88 27.6504H148.757C148.3 27.6504 147.849 27.498 147.403 27.1934C146.958 26.9004 146.735 26.3789 146.735 25.6289C146.735 24.5156 147.034 23.4375 147.632 22.3945C147.843 22.0312 148.206 21.416 148.722 20.5488C149.249 19.6816 149.735 18.8438 150.181 18.0352C150.603 17.3906 151.036 16.6406 151.481 15.7852C151.927 14.9297 152.267 14.3203 152.501 13.957C152.735 13.582 152.958 13.3945 153.169 13.3945C153.38 13.3945 153.649 13.5293 153.978 13.7988C154.317 14.0566 154.487 14.3672 154.487 14.7305C154.487 15.0938 153.72 16.6699 152.185 19.459C150.649 22.248 149.882 23.8359 149.882 24.2227C149.882 24.3164 149.929 24.3633 150.023 24.3633C150.339 24.3633 151.036 23.918 152.114 23.0273C153.204 22.125 154.405 20.9707 155.718 19.5645C157.183 18.0059 158.331 16.582 159.163 15.293C159.269 15.1289 159.351 15.0059 159.409 14.9238C159.48 14.8301 159.562 14.7129 159.655 14.5723C159.761 14.4199 159.843 14.3027 159.901 14.2207C159.972 14.1387 160.048 14.0449 160.13 13.9395C160.224 13.8223 160.306 13.7344 160.376 13.6758C160.446 13.6172 160.523 13.5586 160.605 13.5C160.733 13.3828 160.874 13.3242 161.026 13.3242C161.19 13.3242 161.431 13.3594 161.747 13.4297C162.075 13.5 162.269 13.5762 162.327 13.6582C162.398 13.7402 162.468 13.8164 162.538 13.8867C162.655 14.0156 162.714 14.1387 162.714 14.2559C162.714 14.3613 162.667 14.5078 162.573 14.6953C162.48 14.8711 161.935 15.7969 160.939 17.4727C158.009 22.418 155.993 26.0273 154.892 28.3008C156.673 26.8008 159.181 24.5801 162.415 21.6387C162.544 21.5332 162.673 21.4805 162.802 21.4805C163.165 21.4805 163.347 22.0371 163.347 23.1504C163.347 23.4785 163.288 23.6953 163.171 23.8008C159.667 26.4961 156.368 29.5078 153.274 32.8359Z" fill="#7EB693"/>
</svg>
