<svg width="241" height="31" viewBox="0 0 241 31" fill="none" xmlns="http://www.w3.org/2000/svg">
<path d="M31.9844 20.5137L32.125 21.1816C32.125 21.4629 31.9785 21.7969 31.6855 22.1836C30.9121 23.1914 29.6699 24.3516 27.959 25.6641C26.2598 26.9648 25.0059 27.6152 24.1973 27.6152C23.3887 27.6152 22.7559 27.3809 22.2988 26.9121C21.8418 26.4316 21.6133 25.8867 21.6133 25.2773C21.6133 24.5508 22.375 22.9453 23.8984 20.4609C26.1836 16.7695 29.1016 12.457 32.6523 7.52344C31.9023 8.29688 29.9102 10.3828 26.6758 13.7812C19.5156 21.2812 15.332 25.5293 14.125 26.5254C13.9258 26.6895 13.6328 26.7715 13.2461 26.7715C12.8711 26.7715 12.4727 26.6191 12.0508 26.3145C11.6289 25.998 11.418 25.6465 11.418 25.2598V25.1719C11.4648 24.6797 12.5957 22.2715 14.8105 17.9473C17.0254 13.623 18.8828 10.1836 20.3828 7.62891C18.168 10.0664 15.9297 12.7852 13.668 15.7852C9.36719 21.4805 6.2207 26.332 4.22852 30.3398C4.05273 30.7148 3.83594 30.9023 3.57812 30.9023C3.32031 30.9023 2.94531 30.8379 2.45312 30.709C1.42188 30.4277 0.90625 29.9355 0.90625 29.2324C0.90625 28.8105 1.76758 27.3047 3.49023 24.7148C5.21289 22.1133 7.21094 19.2773 9.48438 16.207C11.7578 13.125 14.1133 10.1602 16.5508 7.3125C19.9141 3.375 22.0762 1.40625 23.0371 1.40625C23.1895 1.40625 23.3359 1.44727 23.4766 1.5293C23.6172 1.59961 23.7051 1.63477 23.7402 1.63477C23.7754 1.63477 23.8105 1.61719 23.8457 1.58203C23.998 1.39453 24.2969 1.30078 24.7422 1.30078C25.1992 1.30078 25.6387 1.38867 26.0605 1.56445C26.4941 1.74023 26.7109 1.93945 26.7109 2.16211C26.7109 2.30273 26.125 3.42188 24.9531 5.51953C21.0273 12.4805 18.3906 17.2617 17.043 19.8633C18.332 18.3047 20.1719 16.2363 22.5625 13.6582C24.9648 11.0801 27.4844 8.50781 30.1211 5.94141C33.5547 2.61328 35.6055 0.949219 36.2734 0.949219C36.543 0.949219 36.8828 1.00781 37.293 1.125C38.0195 1.33594 38.7168 1.44141 39.3848 1.44141C39.5723 1.47656 39.7305 1.55859 39.8594 1.6875C40 1.80469 40.0703 1.92773 40.0703 2.05664C40.0703 2.18555 40.0352 2.29102 39.9648 2.37305C36.1562 7.43555 32.9453 11.9004 30.332 15.7676C27.7188 19.6348 26.1074 22.248 25.498 23.6074C26.7285 23.3496 28.5625 21.8789 31 19.1953C31.1055 19.0547 31.1816 18.9609 31.2285 18.9141C31.2754 18.8672 31.3164 18.8203 31.3516 18.7734C31.5508 18.5391 31.7031 18.6855 31.8086 19.2129C31.8555 19.5176 31.8848 19.7344 31.8965 19.8633C31.9199 19.9805 31.9375 20.1094 31.9492 20.25C31.9727 20.3789 31.9844 20.4668 31.9844 20.5137ZM46.6705 13.6406C47.5612 13.6406 48.0065 13.9453 48.0065 14.5547C48.0065 14.8828 47.9303 15.123 47.778 15.2754C47.6256 15.4277 47.2975 15.9375 46.7936 16.8047C46.3014 17.6602 45.7506 18.7617 45.1413 20.1094C44.5436 21.4453 44.1569 22.5879 43.9811 23.5371C43.9459 23.6543 43.9284 23.8184 43.9284 24.0293C43.9284 24.6738 44.1041 24.9961 44.4557 24.9961C44.8073 24.9961 45.2233 24.832 45.7038 24.5039C46.1842 24.1641 46.612 23.8066 46.987 23.4316C47.362 23.0449 47.7252 22.6523 48.0768 22.2539C48.4401 21.8555 48.6569 21.627 48.7272 21.5684C48.7975 21.5098 48.903 21.4805 49.0436 21.4805C49.2663 21.4805 49.401 21.6504 49.4479 21.9902C49.4948 22.3301 49.5182 22.6816 49.5182 23.0449C49.5182 23.4082 49.483 23.6602 49.4127 23.8008C49.0729 24.4688 48.3229 25.2715 47.1627 26.209C46.0143 27.1465 44.9655 27.6152 44.0163 27.6152C43.0788 27.6152 42.3873 27.3281 41.942 26.7539C41.4967 26.1797 41.2741 25.5469 41.2741 24.8555C41.2741 24.1523 41.3913 23.5371 41.6256 23.0098C40.653 24.2754 39.5338 25.3477 38.2682 26.2266C37.0143 27.1055 35.9889 27.5449 35.192 27.5449C34.3952 27.5449 33.7448 27.3047 33.2409 26.8242C32.5963 26.2266 32.2741 25.4004 32.2741 24.3457C32.2741 23.2793 32.5084 22.2129 32.9772 21.1465C33.4577 20.0684 34.0846 19.0898 34.858 18.2109C35.6315 17.3203 36.4811 16.5117 37.4069 15.7852C39.3522 14.2617 41.1452 13.5 42.7858 13.5C43.4186 13.5 43.9342 13.6055 44.3327 13.8164C44.7311 14.0273 44.983 14.291 45.0885 14.6074C45.3698 14.1855 45.6041 13.9219 45.7916 13.8164C45.9909 13.6992 46.2838 13.6406 46.6705 13.6406ZM44.3327 15.5918C42.3288 15.5918 40.2545 16.7051 38.11 18.9316C37.3483 19.7285 36.6452 20.6836 36.0006 21.7969C35.3678 22.9102 35.0514 23.6719 35.0514 24.082C35.0514 24.4922 35.1686 24.6973 35.403 24.6973C35.7311 24.6973 36.6452 24.0527 38.1452 22.7637C39.6452 21.4629 40.6413 20.5078 41.1334 19.8984C41.6725 19.2188 42.7389 17.7832 44.3327 15.5918ZM70.3567 0.650391C70.5794 0.650391 70.7552 0.720703 70.8841 0.861328C71.013 1.00195 71.0774 1.14844 71.0774 1.30078C71.0774 1.44141 70.9602 1.71094 70.7259 2.10938C70.5032 2.49609 69.9817 3.35156 69.1614 4.67578C68.3411 5.98828 67.7024 7.01953 67.2454 7.76953C64.5852 12.0938 62.4993 15.75 60.9876 18.7383C59.4759 21.7266 58.72 23.5312 58.72 24.1523V24.293C58.72 24.7734 58.8958 25.0137 59.2473 25.0137C59.5989 25.0137 60.0208 24.8496 60.513 24.5215C61.0169 24.1934 61.4563 23.8418 61.8313 23.4668C62.2063 23.0918 62.5813 22.7051 62.9563 22.3066C63.343 21.8965 63.5774 21.6562 63.6595 21.5859C63.7415 21.5156 63.847 21.4805 63.9759 21.4805C64.1751 21.4805 64.304 21.6094 64.3626 21.8672C64.4212 22.1133 64.4505 22.4648 64.4505 22.9219C64.4505 23.3672 64.4153 23.6602 64.345 23.8008C64.0052 24.457 63.2552 25.2598 62.095 26.209C60.9466 27.1465 59.8567 27.6152 58.8255 27.6152C57.0677 27.6152 56.1888 26.8711 56.1888 25.3828C56.1888 24.457 56.5403 23.2441 57.2434 21.7441C56.2942 22.9746 55.3274 24.0234 54.343 24.8906C52.5149 26.4844 50.927 27.2812 49.5794 27.2812C48.8294 27.2812 48.2727 27.0176 47.9095 26.4902C47.5579 25.9629 47.3821 25.207 47.3821 24.2227C47.3821 23.2266 47.7688 22.0371 48.5423 20.6543C49.3157 19.2715 50.2766 18.0293 51.4251 16.9277C52.5852 15.8145 53.8684 14.8887 55.2747 14.1504C56.6809 13.4004 57.9759 13.0254 59.1595 13.0254C59.5345 13.0254 59.9739 13.2539 60.4778 13.7109C60.8177 13.1719 61.4446 12.0938 62.3587 10.4766C65.2298 5.63672 67.1282 2.68359 68.054 1.61719C68.5462 0.972656 69.3138 0.650391 70.3567 0.650391ZM59.4055 15.3633C57.718 15.7383 56.1477 16.5234 54.6946 17.7188C53.2415 18.9141 52.1516 20.168 51.4251 21.4805C50.6985 22.7812 50.3352 23.625 50.3352 24.0117C50.3352 24.3984 50.4173 24.5918 50.5813 24.5918C51.2845 24.5918 53.0247 23.0215 55.802 19.8809C57.1848 18.334 58.386 16.8281 59.4055 15.3633ZM75.5683 13.8516C75.5683 14.625 75.2519 15.3047 74.6191 15.8906C73.998 16.4766 73.289 16.7695 72.4921 16.7695C72.2343 16.7695 72.0644 16.7109 71.9823 16.5938C71.9003 16.4648 71.8593 16.3008 71.8593 16.1016C71.8593 15.9023 71.8827 15.709 71.9296 15.5215C71.5077 15.6621 71.039 15.8789 70.5234 16.1719C70.0077 16.4648 69.3749 16.8984 68.6249 17.4727C67.8749 18.0469 67.4999 18.4746 67.4999 18.7559C67.4999 18.8496 67.6347 18.8965 67.9042 18.8965C68.1855 18.8965 68.6132 18.8027 69.1874 18.6152C69.7616 18.416 70.1601 18.3164 70.3827 18.3164C70.6171 18.3164 70.7695 18.3281 70.8398 18.3516C70.9921 18.4336 71.1562 18.6152 71.332 18.8965C71.5077 19.166 71.5956 19.3828 71.5956 19.5469C71.5956 19.6992 71.4433 19.9043 71.1386 20.1621C70.8339 20.4199 70.4882 20.6191 70.1015 20.7598C69.7148 20.8887 69.457 20.9883 69.328 21.0586C66.8554 22.4414 65.6191 23.3906 65.6191 23.9062C65.6191 24.8203 66.3984 25.2773 67.957 25.2773C68.953 25.2773 69.955 24.9609 70.9628 24.3281C71.8183 23.7891 72.5859 23.2441 73.2655 22.6934C73.957 22.1309 74.3905 21.7852 74.5663 21.6562C74.7538 21.5273 74.8945 21.4629 74.9882 21.4629C75.2929 21.4629 75.4452 21.8027 75.4452 22.4824C75.4452 23.1621 75.4042 23.6133 75.3222 23.8359C75.2402 24.0469 75.0058 24.3105 74.6191 24.627C72.1113 26.666 69.7382 27.6855 67.4999 27.6855C66.3046 27.6855 65.3495 27.5215 64.6347 27.1934C63.3222 26.5957 62.6659 25.6816 62.6659 24.4512C62.6659 22.834 63.7851 21.6094 66.0234 20.7773C65.578 20.5781 65.2909 20.3262 65.162 20.0215C65.0331 19.7051 64.9687 19.207 64.9687 18.5273C64.9687 17.8359 65.2851 17.1094 65.9179 16.3477C66.5624 15.5742 67.3476 14.9414 68.2734 14.4492C70.3359 13.3359 72.1757 12.7793 73.7929 12.7793C74.1796 12.7793 74.5722 12.873 74.9706 13.0605C75.3691 13.248 75.5683 13.5117 75.5683 13.8516ZM116.7 2.67188C116.571 2.67188 116.507 2.58398 116.507 2.4082C116.507 2.23242 116.554 2.12109 116.648 2.07422C116.753 2.01562 116.923 1.92773 117.157 1.81055C117.404 1.68164 117.573 1.59961 117.667 1.56445C117.761 1.51758 117.907 1.44727 118.107 1.35352C118.306 1.25977 118.464 1.19531 118.581 1.16016C118.71 1.125 118.863 1.07812 119.038 1.01953C119.331 0.9375 119.695 0.896484 120.128 0.896484C120.573 0.896484 121.025 1.04883 121.482 1.35352C121.95 1.6582 122.185 2.05664 122.185 2.54883C122.185 3.56836 121.739 4.92188 120.849 6.60938C119.958 8.28516 118.816 10.0312 117.421 11.8477C116.027 13.6641 114.462 15.5098 112.728 17.3848C110.993 19.2598 109.3 20.9355 107.648 22.4121C105.995 23.8887 104.437 25.0957 102.972 26.0332C101.519 26.9707 100.4 27.4395 99.6145 27.4395C97.9504 27.4395 97.1184 26.6836 97.1184 25.1719C97.1184 23.0508 98.3195 19.9863 100.722 15.9785C96.0461 21.5098 92.132 25.0781 88.9797 26.6836C88.1594 27.1055 87.5324 27.3164 87.0988 27.3164C86.6652 27.3164 86.132 27.0527 85.4992 26.5254C84.8781 25.9863 84.5676 25.459 84.5676 24.9434C84.5676 22.0254 86.5949 17.9414 90.6496 12.6914C92.1965 10.6875 94.1242 8.44922 96.4328 5.97656C94.4172 7.72266 92.882 8.5957 91.8273 8.5957C91.2648 8.5957 90.8488 8.32031 90.5793 7.76953C90.3332 7.37109 90.2102 6.99609 90.2102 6.64453C90.2102 6.28125 90.4445 5.88867 90.9133 5.4668C91.382 5.04492 91.6574 4.83398 91.7395 4.83398C91.8215 4.83398 91.8977 4.86328 91.968 4.92188C92.0383 4.98047 92.0734 5.0332 92.0734 5.08008C91.9094 5.25586 91.8273 5.37305 91.8273 5.43164C91.8273 5.47852 91.8977 5.50195 92.0383 5.50195C92.1789 5.50195 93.3508 4.83398 95.5539 3.49805C97.757 2.15039 98.9641 1.47656 99.175 1.47656C99.7844 1.47656 100.37 1.64648 100.933 1.98633C101.495 2.31445 101.777 2.5957 101.777 2.83008C101.777 3.05273 101.659 3.35156 101.425 3.72656C101.191 4.10156 99.7961 5.94141 97.2414 9.24609C94.6867 12.5391 92.8293 15.0352 91.6691 16.7344C90.509 18.4219 89.6594 19.8105 89.1203 20.9004C88.5813 21.9785 88.3117 22.6348 88.3117 22.8691C88.3117 23.1035 88.3469 23.2207 88.4172 23.2207C88.9094 23.2207 90.6672 21.7383 93.6906 18.7734C96.7258 15.7969 99.6145 12.8613 102.357 9.9668C105.099 7.06055 106.587 5.44922 106.821 5.13281C107.068 4.81641 107.331 4.59375 107.613 4.46484C107.894 4.32422 108.316 4.25391 108.878 4.25391C110.448 4.25391 111.234 4.55273 111.234 5.15039C111.234 5.39648 110.888 5.91797 110.196 6.71484C109.517 7.51172 109.036 8.0918 108.755 8.45508C107.29 10.3184 105.655 12.9434 103.851 16.3301C102.058 19.7168 101.161 21.8848 101.161 22.834C101.161 23.0918 101.243 23.2207 101.407 23.2207C101.583 23.2207 102.087 22.8926 102.919 22.2363C103.763 21.5684 104.87 20.5781 106.241 19.2656C107.613 17.9414 109.171 16.3066 110.917 14.3613C112.663 12.416 114.327 10.2598 115.909 7.89258C117.503 5.51367 118.3 4.01953 118.3 3.41016C118.3 2.80078 118.066 2.49609 117.597 2.49609L116.7 2.67188ZM127.185 7.69922C127.185 8.36719 126.875 9.04102 126.254 9.7207C125.633 10.3887 124.982 10.7227 124.303 10.7227C123.635 10.7227 123.301 10.3711 123.301 9.66797C123.301 8.96484 123.594 8.29688 124.18 7.66406C124.777 7.01953 125.433 6.69727 126.148 6.69727C126.465 6.69727 126.717 6.78516 126.904 6.96094C127.092 7.13672 127.185 7.38281 127.185 7.69922ZM124.338 23.0449C124.338 23.3965 124.303 23.6484 124.232 23.8008C123.658 24.9727 122.744 25.9219 121.49 26.6484C120.236 27.3633 119.146 27.7207 118.221 27.7207C117.295 27.7207 116.498 27.4102 115.83 26.7891C115.162 26.168 114.828 25.5352 114.828 24.8906C114.828 24.2461 115.15 23.3086 115.795 22.0781C116.439 20.8477 117.084 19.7109 117.728 18.668C118.373 17.625 118.695 17.0625 118.695 16.9805C118.695 16.8867 118.572 16.7109 118.326 16.4531C118.092 16.1953 117.974 16.0078 117.974 15.8906C117.974 15.7617 118.215 15.4395 118.695 14.9238C119.187 14.3965 119.779 13.8809 120.471 13.377C121.174 12.8613 121.707 12.6035 122.07 12.6035C122.445 12.6035 122.779 12.7676 123.072 13.0957C123.365 13.4238 123.512 13.7227 123.512 13.9922C123.512 14.2617 122.117 16.7988 119.328 21.6035C119.293 21.6738 119.193 21.832 119.029 22.0781C118.877 22.3125 118.754 22.5117 118.66 22.6758C118.578 22.8281 118.478 23.0156 118.361 23.2383C118.127 23.707 118.01 24.0996 118.01 24.416C118.01 24.8145 118.279 25.0137 118.818 25.0137C119.357 25.0137 119.914 24.832 120.488 24.4688C121.074 24.0938 121.578 23.6836 122 23.2383C123.101 22.0547 123.728 21.4629 123.881 21.4629C124.185 21.4629 124.338 21.9902 124.338 23.0449ZM135.508 4.35938L136.229 4.53516C136.334 4.53516 136.428 4.58789 136.51 4.69336C136.592 4.79883 136.633 4.89844 136.633 4.99219C136.633 5.08594 136.51 5.33789 136.264 5.74805C136.018 6.1582 135.725 6.62695 135.385 7.1543C135.057 7.66992 134.881 7.95117 134.858 7.99805C135.772 7.92773 136.416 7.89258 136.791 7.89258C137.178 7.89258 137.442 7.92188 137.582 7.98047C137.723 8.02734 137.881 8.17383 138.057 8.41992C138.245 8.6543 138.415 8.83594 138.567 8.96484C138.719 9.08203 138.795 9.26367 138.795 9.50977C138.795 9.75586 138.643 9.9668 138.338 10.1426C138.045 10.3066 137.729 10.4062 137.389 10.4414C134.67 10.7109 133.17 10.8516 132.889 10.8633C131.94 12.3164 130.61 14.584 128.899 17.666C127.2 20.7363 126.297 22.6582 126.192 23.4316C126.145 23.7832 126.122 24.0703 126.122 24.293C126.122 24.75 126.362 24.9785 126.842 24.9785C127.323 24.9785 127.856 24.7969 128.442 24.4336C129.028 24.0586 129.567 23.6543 130.059 23.2207C131.372 22.0488 132.075 21.4629 132.168 21.4629C132.473 21.4629 132.625 21.9902 132.625 23.0449C132.625 23.6191 132.362 24.1348 131.834 24.5918C130.651 25.6113 129.655 26.3789 128.846 26.8945C128.038 27.4102 127.229 27.668 126.42 27.668C126.245 27.668 126.081 27.6504 125.928 27.6152C124.991 27.4395 124.299 27.0996 123.854 26.5957C123.42 26.0801 123.204 25.3887 123.204 24.5215C123.215 23.6543 123.473 22.6055 123.977 21.375C124.493 20.1328 125.137 18.8145 125.911 17.4199C127.176 15.1465 128.442 13.0137 129.707 11.0215L129.04 11.1094C127.68 11.2617 126.889 11.3379 126.666 11.3379H126.508C126.168 11.3379 125.84 11.2734 125.524 11.1445C125.207 11.0039 125.049 10.834 125.049 10.6348C125.049 10.4355 125.131 10.2422 125.295 10.0547C125.471 9.86719 125.577 9.7207 125.612 9.61523C125.694 9.35742 125.999 9.07031 126.526 8.75391C127.065 8.4375 127.469 8.27344 127.739 8.26172C128.008 8.23828 128.266 8.2207 128.512 8.20898C128.77 8.19727 129.051 8.18555 129.356 8.17383C129.672 8.16211 129.913 8.15039 130.077 8.13867L131.659 8.06836C132.643 6.5918 133.317 5.64258 133.68 5.2207C134.055 4.79883 134.272 4.57031 134.331 4.53516C134.389 4.48828 134.506 4.46484 134.682 4.46484L135.508 4.35938ZM146.978 21.8145C147.06 22.3535 147.101 22.7812 147.101 23.0977C147.101 23.4023 147.042 23.6719 146.925 23.9062C146.819 24.1289 146.573 24.4512 146.187 24.873C145.812 25.2832 145.36 25.6992 144.833 26.1211C143.544 27.1406 142.226 27.6504 140.878 27.6504C138.944 27.6504 137.978 26.7949 137.978 25.084C137.978 23.5957 139.273 20.6309 141.862 16.1895C141.956 16.0254 142.021 15.9082 142.056 15.8379C141.153 16.4707 139.425 18.1992 136.87 21.0234C134.327 23.8359 132.634 25.8281 131.79 27C131.72 27.1055 131.544 27.2227 131.263 27.3516C130.982 27.4805 130.759 27.5449 130.595 27.5449C130.442 27.5449 130.278 27.4922 130.103 27.3867C129.915 27.293 129.798 27.2461 129.751 27.2461C129.599 27.2461 129.523 27.1934 129.523 27.0879C129.523 26.9941 129.734 26.4609 130.155 25.4883C130.566 24.5039 131.11 23.2852 131.79 21.832C133.653 17.8242 136.425 12.6094 140.105 6.1875C141.394 3.9375 142.401 2.34375 143.128 1.40625C143.644 0.738281 144.511 0.404297 145.73 0.404297C145.987 0.404297 146.134 0.480469 146.169 0.632812C146.204 0.785156 146.222 0.949219 146.222 1.125C146.222 1.30078 146.187 1.47656 146.116 1.65234L144.235 4.58789C140.509 10.4004 137.702 15.2168 135.816 19.0371C137.644 16.8105 139.419 15.0938 141.142 13.8867C142.208 13.125 143.005 12.7441 143.532 12.7441C144.071 12.7441 144.558 12.832 144.991 13.0078C145.425 13.1719 145.642 13.5762 145.642 14.2207C145.642 14.4551 145.261 15.3223 144.499 16.8223C142.214 21.3223 141.071 23.8242 141.071 24.3281C141.071 24.8203 141.276 25.0664 141.687 25.0664C142.284 25.0664 143.204 24.4863 144.446 23.3262C145.384 22.4473 145.976 21.8848 146.222 21.6387C146.362 21.5332 146.491 21.4805 146.609 21.4805C146.831 21.4805 146.954 21.5918 146.978 21.8145ZM169.987 2.02148L171.27 1.74023C171.598 1.74023 171.862 1.81055 172.061 1.95117C172.26 2.0918 172.36 2.22656 172.36 2.35547C172.36 2.47266 172.33 2.64844 172.272 2.88281C172.213 3.11719 171.739 5.40234 170.848 9.73828C169.957 14.0742 169.307 17.3086 168.897 19.4414C170.889 16.7344 173.215 13.4004 175.875 9.43945C178.536 5.47852 180.088 2.84766 180.534 1.54688C180.674 1.13672 180.856 0.820312 181.079 0.597656C181.301 0.375 181.5 0.246094 181.676 0.210938C181.852 0.164062 182.121 0.140625 182.485 0.140625C182.848 0.140625 183.276 0.222656 183.768 0.386719C184.272 0.539062 184.524 0.796875 184.524 1.16016C184.524 1.85156 183.498 3.84375 181.448 7.13672C179.397 10.4297 177.053 13.9277 174.416 17.6309C171.791 21.334 169.594 24.2637 167.825 26.4199C167.508 26.8066 167.121 27 166.664 27C166.219 27 165.745 26.9238 165.241 26.7715C164.748 26.6074 164.502 26.3262 164.502 25.9277C164.502 24.6387 165.633 18.4453 167.895 7.34766C165.961 9.85547 163.612 13.3477 160.846 17.8242C157.963 22.4531 156.334 25.3242 155.959 26.4375C155.748 27.1055 155.508 27.4922 155.239 27.5977C155.051 27.6797 154.852 27.7207 154.641 27.7207L153.252 27.8789C152.983 27.8789 152.737 27.8027 152.514 27.6504C152.28 27.498 152.163 27.3398 152.163 27.1758C152.163 26.707 152.807 25.3066 154.096 22.9746C155.397 20.6426 156.909 18.1113 158.631 15.3809C160.366 12.6387 162.176 9.97266 164.063 7.38281C165.95 4.79297 167.409 3.05273 168.44 2.16211C168.651 1.97461 168.891 1.88086 169.161 1.88086L169.987 2.02148ZM190.966 13.6406C191.856 13.6406 192.302 13.9453 192.302 14.5547C192.302 14.8828 192.226 15.123 192.073 15.2754C191.921 15.4277 191.593 15.9375 191.089 16.8047C190.597 17.6602 190.046 18.7617 189.437 20.1094C188.839 21.4453 188.452 22.5879 188.276 23.5371C188.241 23.6543 188.224 23.8184 188.224 24.0293C188.224 24.6738 188.399 24.9961 188.751 24.9961C189.103 24.9961 189.519 24.832 189.999 24.5039C190.48 24.1641 190.907 23.8066 191.282 23.4316C191.657 23.0449 192.021 22.6523 192.372 22.2539C192.735 21.8555 192.952 21.627 193.023 21.5684C193.093 21.5098 193.198 21.4805 193.339 21.4805C193.562 21.4805 193.696 21.6504 193.743 21.9902C193.79 22.3301 193.814 22.6816 193.814 23.0449C193.814 23.4082 193.778 23.6602 193.708 23.8008C193.368 24.4688 192.618 25.2715 191.458 26.209C190.31 27.1465 189.261 27.6152 188.312 27.6152C187.374 27.6152 186.683 27.3281 186.237 26.7539C185.792 26.1797 185.569 25.5469 185.569 24.8555C185.569 24.1523 185.687 23.5371 185.921 23.0098C184.948 24.2754 183.829 25.3477 182.564 26.2266C181.31 27.1055 180.284 27.5449 179.487 27.5449C178.69 27.5449 178.04 27.3047 177.536 26.8242C176.892 26.2266 176.569 25.4004 176.569 24.3457C176.569 23.2793 176.804 22.2129 177.273 21.1465C177.753 20.0684 178.38 19.0898 179.153 18.2109C179.927 17.3203 180.776 16.5117 181.702 15.7852C183.648 14.2617 185.44 13.5 187.081 13.5C187.714 13.5 188.23 13.6055 188.628 13.8164C189.026 14.0273 189.278 14.291 189.384 14.6074C189.665 14.1855 189.899 13.9219 190.087 13.8164C190.286 13.6992 190.579 13.6406 190.966 13.6406ZM188.628 15.5918C186.624 15.5918 184.55 16.7051 182.405 18.9316C181.644 19.7285 180.94 20.6836 180.296 21.7969C179.663 22.9102 179.347 23.6719 179.347 24.082C179.347 24.4922 179.464 24.6973 179.698 24.6973C180.026 24.6973 180.94 24.0527 182.44 22.7637C183.94 21.4629 184.937 20.5078 185.429 19.8984C185.968 19.2188 187.034 17.7832 188.628 15.5918ZM204.668 4.35938L205.388 4.53516C205.494 4.53516 205.588 4.58789 205.67 4.69336C205.752 4.79883 205.793 4.89844 205.793 4.99219C205.793 5.08594 205.67 5.33789 205.424 5.74805C205.177 6.1582 204.884 6.62695 204.545 7.1543C204.216 7.66992 204.041 7.95117 204.017 7.99805C204.931 7.92773 205.576 7.89258 205.951 7.89258C206.338 7.89258 206.601 7.92188 206.742 7.98047C206.883 8.02734 207.041 8.17383 207.216 8.41992C207.404 8.6543 207.574 8.83594 207.726 8.96484C207.879 9.08203 207.955 9.26367 207.955 9.50977C207.955 9.75586 207.802 9.9668 207.498 10.1426C207.205 10.3066 206.888 10.4062 206.549 10.4414C203.83 10.7109 202.33 10.8516 202.049 10.8633C201.099 12.3164 199.769 14.584 198.058 17.666C196.359 20.7363 195.457 22.6582 195.351 23.4316C195.304 23.7832 195.281 24.0703 195.281 24.293C195.281 24.75 195.521 24.9785 196.002 24.9785C196.482 24.9785 197.015 24.7969 197.601 24.4336C198.187 24.0586 198.726 23.6543 199.218 23.2207C200.531 22.0488 201.234 21.4629 201.328 21.4629C201.633 21.4629 201.785 21.9902 201.785 23.0449C201.785 23.6191 201.521 24.1348 200.994 24.5918C199.81 25.6113 198.814 26.3789 198.006 26.8945C197.197 27.4102 196.388 27.668 195.58 27.668C195.404 27.668 195.24 27.6504 195.088 27.6152C194.15 27.4395 193.459 27.0996 193.013 26.5957C192.58 26.0801 192.363 25.3887 192.363 24.5215C192.375 23.6543 192.633 22.6055 193.136 21.375C193.652 20.1328 194.297 18.8145 195.07 17.4199C196.336 15.1465 197.601 13.0137 198.867 11.0215L198.199 11.1094C196.84 11.2617 196.049 11.3379 195.826 11.3379H195.668C195.328 11.3379 195 11.2734 194.683 11.1445C194.367 11.0039 194.209 10.834 194.209 10.6348C194.209 10.4355 194.291 10.2422 194.455 10.0547C194.631 9.86719 194.736 9.7207 194.771 9.61523C194.853 9.35742 195.158 9.07031 195.685 8.75391C196.224 8.4375 196.629 8.27344 196.898 8.26172C197.168 8.23828 197.425 8.2207 197.672 8.20898C197.929 8.19727 198.211 8.18555 198.515 8.17383C198.832 8.16211 199.072 8.15039 199.236 8.13867L200.818 8.06836C201.802 6.5918 202.476 5.64258 202.84 5.2207C203.215 4.79883 203.431 4.57031 203.49 4.53516C203.549 4.48828 203.666 4.46484 203.841 4.46484L204.668 4.35938ZM215.557 21.4805C215.78 21.4805 215.914 21.6504 215.961 21.9902C216.008 22.3301 216.032 22.6816 216.032 23.0449C216.032 23.4082 215.996 23.6602 215.926 23.8008C215.586 24.457 214.842 25.2598 213.694 26.209C212.545 27.1465 211.455 27.6152 210.424 27.6152C209.791 27.6152 209.205 27.4219 208.666 27.0352C208.127 26.6602 207.858 25.998 207.858 25.0488C207.858 24.0996 208.11 23.168 208.614 22.2539C205.707 25.8984 203.428 27.7207 201.776 27.7207C201.119 27.7207 200.586 27.4863 200.176 27.0176C199.778 26.5488 199.578 26.0684 199.578 25.5762C199.578 25.0723 199.649 24.5566 199.789 24.0293C199.93 23.4902 200.076 23.0098 200.229 22.5879C200.393 22.166 200.627 21.6445 200.932 21.0234C201.248 20.4023 201.483 19.9512 201.635 19.6699C201.787 19.3887 202.028 18.9668 202.356 18.4043C202.696 17.8301 203.135 17.0625 203.674 16.1016C204.225 15.1406 204.676 14.4316 205.028 13.9746C205.391 13.5059 205.742 13.2715 206.082 13.2715C206.422 13.2598 206.721 13.3945 206.979 13.6758C207.237 13.957 207.366 14.1855 207.366 14.3613C207.366 14.5371 206.973 15.3281 206.188 16.7344C203.867 20.9297 202.707 23.373 202.707 24.0645C202.707 24.2402 202.772 24.3281 202.901 24.3281C203.463 24.3281 204.864 23.1094 207.102 20.6719C209.34 18.2344 210.635 16.6758 210.987 15.9961C211.338 15.3047 211.678 14.7246 212.006 14.2559C212.346 13.7871 212.598 13.5 212.762 13.3945C213.266 13.0664 213.916 12.8906 214.713 12.8672C214.842 12.8672 214.942 12.873 215.012 12.8848C215.082 12.8965 215.164 12.9961 215.258 13.1836C215.352 13.3711 215.399 13.5176 215.399 13.623C215.293 13.9512 214.825 14.8242 213.992 16.2422C213.172 17.6602 212.715 18.4629 212.621 18.6504C211.239 21.5098 210.547 23.373 210.547 24.2402C210.547 24.7324 210.735 24.9785 211.11 24.9785C211.789 24.8848 212.61 24.3398 213.571 23.3438C213.922 22.9805 214.268 22.6113 214.608 22.2363C214.959 21.8613 215.176 21.6445 215.258 21.5859C215.34 21.5156 215.44 21.4805 215.557 21.4805ZM221.015 17.4199C223.78 14.2793 226.136 12.709 228.081 12.709C228.561 12.709 228.954 12.8555 229.259 13.1484C229.575 13.4297 229.733 13.7988 229.733 14.2559C229.733 14.7129 229.405 15.4805 228.749 16.5586C228.104 17.625 227.507 18.5273 226.956 19.2656C226.663 19.6406 226.329 19.8281 225.954 19.8281C225.591 19.8281 225.304 19.6934 225.093 19.4238C224.894 19.1543 224.794 18.8379 224.794 18.4746C224.794 17.666 225.227 16.752 226.095 15.7324L226.06 15.6973C225.673 15.7324 224.712 16.4941 223.177 17.9824C221.653 19.4707 220.352 20.8066 219.274 21.9902C218.208 23.1621 217.048 24.5918 215.794 26.2793C215.431 26.7832 215.12 27.0352 214.862 27.0352C214.616 27.0352 214.288 26.959 213.878 26.8066C213.456 26.6426 213.204 26.5254 213.122 26.4551C213.028 26.3848 212.981 26.2676 212.981 26.1035C212.981 25.9395 213.028 25.752 213.122 25.541C213.216 25.3184 213.392 25.0078 213.649 24.6094C213.895 24.2109 214.27 23.5664 214.774 22.6758C215.29 21.7852 216.087 20.4375 217.165 18.6328C218.243 16.8281 218.888 15.7383 219.099 15.3633C219.544 14.5898 219.907 14.0273 220.188 13.6758C220.716 13.0078 221.606 12.6738 222.86 12.6738C223.142 12.6738 223.282 12.8496 223.282 13.2012C223.282 13.752 222.772 14.7891 221.753 16.3125L221.015 17.4199ZM240.306 13.8516C240.306 14.625 239.99 15.3047 239.357 15.8906C238.736 16.4766 238.027 16.7695 237.23 16.7695C236.972 16.7695 236.802 16.7109 236.72 16.5938C236.638 16.4648 236.597 16.3008 236.597 16.1016C236.597 15.9023 236.621 15.709 236.668 15.5215C236.246 15.6621 235.777 15.8789 235.261 16.1719C234.746 16.4648 234.113 16.8984 233.363 17.4727C232.613 18.0469 232.238 18.4746 232.238 18.7559C232.238 18.8496 232.373 18.8965 232.642 18.8965C232.923 18.8965 233.351 18.8027 233.925 18.6152C234.5 18.416 234.898 18.3164 235.121 18.3164C235.355 18.3164 235.507 18.3281 235.578 18.3516C235.73 18.4336 235.894 18.6152 236.07 18.8965C236.246 19.166 236.334 19.3828 236.334 19.5469C236.334 19.6992 236.181 19.9043 235.877 20.1621C235.572 20.4199 235.226 20.6191 234.839 20.7598C234.453 20.8887 234.195 20.9883 234.066 21.0586C231.593 22.4414 230.357 23.3906 230.357 23.9062C230.357 24.8203 231.136 25.2773 232.695 25.2773C233.691 25.2773 234.693 24.9609 235.701 24.3281C236.556 23.7891 237.324 23.2441 238.004 22.6934C238.695 22.1309 239.129 21.7852 239.304 21.6562C239.492 21.5273 239.632 21.4629 239.726 21.4629C240.031 21.4629 240.183 21.8027 240.183 22.4824C240.183 23.1621 240.142 23.6133 240.06 23.8359C239.978 24.0469 239.744 24.3105 239.357 24.627C236.849 26.666 234.476 27.6855 232.238 27.6855C231.043 27.6855 230.087 27.5215 229.373 27.1934C228.06 26.5957 227.404 25.6816 227.404 24.4512C227.404 22.834 228.523 21.6094 230.761 20.7773C230.316 20.5781 230.029 20.3262 229.9 20.0215C229.771 19.7051 229.707 19.207 229.707 18.5273C229.707 17.8359 230.023 17.1094 230.656 16.3477C231.3 15.5742 232.086 14.9414 233.011 14.4492C235.074 13.3359 236.914 12.7793 238.531 12.7793C238.918 12.7793 239.31 12.873 239.709 13.0605C240.107 13.248 240.306 13.5117 240.306 13.8516Z" fill="#7EB693"/>
</svg>
