<svg width="134" height="29" viewBox="0 0 134 29" fill="none" xmlns="http://www.w3.org/2000/svg">
<path d="M18.1914 2.02148L19.4746 1.74023C19.8027 1.74023 20.0664 1.81055 20.2656 1.95117C20.4648 2.0918 20.5645 2.22656 20.5645 2.35547C20.5645 2.47266 20.5352 2.64844 20.4766 2.88281C20.418 3.11719 19.9434 5.40234 19.0527 9.73828C18.1621 14.0742 17.5117 17.3086 17.1016 19.4414C19.0938 16.7344 21.4199 13.4004 24.0801 9.43945C26.7402 5.47852 28.293 2.84766 28.7383 1.54688C28.8789 1.13672 29.0605 0.820312 29.2832 0.597656C29.5059 0.375 29.7051 0.246094 29.8809 0.210938C30.0566 0.164062 30.3262 0.140625 30.6895 0.140625C31.0527 0.140625 31.4805 0.222656 31.9727 0.386719C32.4766 0.539062 32.7285 0.796875 32.7285 1.16016C32.7285 1.85156 31.7031 3.84375 29.6523 7.13672C27.6016 10.4297 25.2578 13.9277 22.6211 17.6309C19.9961 21.334 17.7988 24.2637 16.0293 26.4199C15.7129 26.8066 15.3262 27 14.8691 27C14.4238 27 13.9492 26.9238 13.4453 26.7715C12.9531 26.6074 12.707 26.3262 12.707 25.9277C12.707 24.6387 13.8379 18.4453 16.0996 7.34766C14.166 9.85547 11.8164 13.3477 9.05078 17.8242C6.16797 22.4531 4.53906 25.3242 4.16406 26.4375C3.95312 27.1055 3.71289 27.4922 3.44336 27.5977C3.25586 27.6797 3.05664 27.7207 2.8457 27.7207L1.45703 27.8789C1.1875 27.8789 0.941406 27.8027 0.71875 27.6504C0.484375 27.498 0.367188 27.3398 0.367188 27.1758C0.367188 26.707 1.01172 25.3066 2.30078 22.9746C3.60156 20.6426 5.11328 18.1113 6.83594 15.3809C8.57031 12.6387 10.3809 9.97266 12.2676 7.38281C14.1543 4.79297 15.6133 3.05273 16.6445 2.16211C16.8555 1.97461 17.0957 1.88086 17.3652 1.88086L18.1914 2.02148ZM39.1705 13.6406C40.0612 13.6406 40.5065 13.9453 40.5065 14.5547C40.5065 14.8828 40.4303 15.123 40.278 15.2754C40.1256 15.4277 39.7975 15.9375 39.2936 16.8047C38.8014 17.6602 38.2506 18.7617 37.6413 20.1094C37.0436 21.4453 36.6569 22.5879 36.4811 23.5371C36.4459 23.6543 36.4284 23.8184 36.4284 24.0293C36.4284 24.6738 36.6041 24.9961 36.9557 24.9961C37.3073 24.9961 37.7233 24.832 38.2038 24.5039C38.6842 24.1641 39.112 23.8066 39.487 23.4316C39.862 23.0449 40.2252 22.6523 40.5768 22.2539C40.9401 21.8555 41.1569 21.627 41.2272 21.5684C41.2975 21.5098 41.403 21.4805 41.5436 21.4805C41.7663 21.4805 41.901 21.6504 41.9479 21.9902C41.9948 22.3301 42.0182 22.6816 42.0182 23.0449C42.0182 23.4082 41.983 23.6602 41.9127 23.8008C41.5729 24.4688 40.8229 25.2715 39.6627 26.209C38.5143 27.1465 37.4655 27.6152 36.5163 27.6152C35.5788 27.6152 34.8873 27.3281 34.442 26.7539C33.9967 26.1797 33.7741 25.5469 33.7741 24.8555C33.7741 24.1523 33.8913 23.5371 34.1256 23.0098C33.153 24.2754 32.0338 25.3477 30.7682 26.2266C29.5143 27.1055 28.4889 27.5449 27.692 27.5449C26.8952 27.5449 26.2448 27.3047 25.7409 26.8242C25.0963 26.2266 24.7741 25.4004 24.7741 24.3457C24.7741 23.2793 25.0084 22.2129 25.4772 21.1465C25.9577 20.0684 26.5846 19.0898 27.358 18.2109C28.1315 17.3203 28.9811 16.5117 29.9069 15.7852C31.8522 14.2617 33.6452 13.5 35.2858 13.5C35.9186 13.5 36.4342 13.6055 36.8327 13.8164C37.2311 14.0273 37.483 14.291 37.5885 14.6074C37.8698 14.1855 38.1041 13.9219 38.2916 13.8164C38.4909 13.6992 38.7838 13.6406 39.1705 13.6406ZM36.8327 15.5918C34.8288 15.5918 32.7545 16.7051 30.61 18.9316C29.8483 19.7285 29.1452 20.6836 28.5006 21.7969C27.8678 22.9102 27.5514 23.6719 27.5514 24.082C27.5514 24.4922 27.6686 24.6973 27.903 24.6973C28.2311 24.6973 29.1452 24.0527 30.6452 22.7637C32.1452 21.4629 33.1413 20.5078 33.6334 19.8984C34.1725 19.2188 35.2389 17.7832 36.8327 15.5918ZM52.8723 4.35938L53.593 4.53516C53.6985 4.53516 53.7923 4.58789 53.8743 4.69336C53.9563 4.79883 53.9973 4.89844 53.9973 4.99219C53.9973 5.08594 53.8743 5.33789 53.6282 5.74805C53.3821 6.1582 53.0891 6.62695 52.7493 7.1543C52.4212 7.66992 52.2454 7.95117 52.222 7.99805C53.136 7.92773 53.7805 7.89258 54.1555 7.89258C54.5423 7.89258 54.8059 7.92188 54.9466 7.98047C55.0872 8.02734 55.2454 8.17383 55.4212 8.41992C55.6087 8.6543 55.7786 8.83594 55.9309 8.96484C56.0833 9.08203 56.1595 9.26367 56.1595 9.50977C56.1595 9.75586 56.0071 9.9668 55.7024 10.1426C55.4095 10.3066 55.093 10.4062 54.7532 10.4414C52.0345 10.7109 50.5345 10.8516 50.2532 10.8633C49.304 12.3164 47.9739 14.584 46.263 17.666C44.5638 20.7363 43.6614 22.6582 43.5559 23.4316C43.5091 23.7832 43.4856 24.0703 43.4856 24.293C43.4856 24.75 43.7259 24.9785 44.2063 24.9785C44.6868 24.9785 45.22 24.7969 45.8059 24.4336C46.3919 24.0586 46.9309 23.6543 47.4231 23.2207C48.7356 22.0488 49.4388 21.4629 49.5325 21.4629C49.8372 21.4629 49.9895 21.9902 49.9895 23.0449C49.9895 23.6191 49.7259 24.1348 49.1985 24.5918C48.0149 25.6113 47.0188 26.3789 46.2102 26.8945C45.4016 27.4102 44.593 27.668 43.7845 27.668C43.6087 27.668 43.4446 27.6504 43.2923 27.6152C42.3548 27.4395 41.6634 27.0996 41.218 26.5957C40.7845 26.0801 40.5677 25.3887 40.5677 24.5215C40.5794 23.6543 40.8372 22.6055 41.3411 21.375C41.8567 20.1328 42.5013 18.8145 43.2747 17.4199C44.5403 15.1465 45.8059 13.0137 47.0716 11.0215L46.4036 11.1094C45.0442 11.2617 44.2532 11.3379 44.0305 11.3379H43.8723C43.5325 11.3379 43.2044 11.2734 42.888 11.1445C42.5716 11.0039 42.4134 10.834 42.4134 10.6348C42.4134 10.4355 42.4954 10.2422 42.6595 10.0547C42.8352 9.86719 42.9407 9.7207 42.9759 9.61523C43.0579 9.35742 43.3626 9.07031 43.8899 8.75391C44.429 8.4375 44.8333 8.27344 45.1028 8.26172C45.3723 8.23828 45.6302 8.2207 45.8763 8.20898C46.1341 8.19727 46.4153 8.18555 46.72 8.17383C47.0364 8.16211 47.2766 8.15039 47.4407 8.13867L49.0227 8.06836C50.0071 6.5918 50.6809 5.64258 51.0442 5.2207C51.4192 4.79883 51.636 4.57031 51.6946 4.53516C51.7532 4.48828 51.8704 4.46484 52.0462 4.46484L52.8723 4.35938ZM63.7616 21.4805C63.9843 21.4805 64.1191 21.6504 64.1659 21.9902C64.2128 22.3301 64.2363 22.6816 64.2363 23.0449C64.2363 23.4082 64.2011 23.6602 64.1308 23.8008C63.7909 24.457 63.0468 25.2598 61.8984 26.209C60.7499 27.1465 59.6601 27.6152 58.6288 27.6152C57.996 27.6152 57.4101 27.4219 56.871 27.0352C56.332 26.6602 56.0624 25.998 56.0624 25.0488C56.0624 24.0996 56.3144 23.168 56.8183 22.2539C53.912 25.8984 51.6327 27.7207 49.9804 27.7207C49.3241 27.7207 48.7909 27.4863 48.3808 27.0176C47.9823 26.5488 47.7831 26.0684 47.7831 25.5762C47.7831 25.0723 47.8534 24.5566 47.9941 24.0293C48.1347 23.4902 48.2812 23.0098 48.4335 22.5879C48.5976 22.166 48.832 21.6445 49.1366 21.0234C49.453 20.4023 49.6874 19.9512 49.8398 19.6699C49.9921 19.3887 50.2323 18.9668 50.5605 18.4043C50.9003 17.8301 51.3398 17.0625 51.8788 16.1016C52.4296 15.1406 52.8808 14.4316 53.2323 13.9746C53.5956 13.5059 53.9472 13.2715 54.287 13.2715C54.6269 13.2598 54.9257 13.3945 55.1835 13.6758C55.4413 13.957 55.5702 14.1855 55.5702 14.3613C55.5702 14.5371 55.1777 15.3281 54.3925 16.7344C52.0722 20.9297 50.912 23.373 50.912 24.0645C50.912 24.2402 50.9765 24.3281 51.1054 24.3281C51.6679 24.3281 53.0683 23.1094 55.3066 20.6719C57.5448 18.2344 58.8398 16.6758 59.1913 15.9961C59.5429 15.3047 59.8827 14.7246 60.2109 14.2559C60.5507 13.7871 60.8027 13.5 60.9667 13.3945C61.4706 13.0664 62.121 12.8906 62.9179 12.8672C63.0468 12.8672 63.1464 12.873 63.2167 12.8848C63.287 12.8965 63.3691 12.9961 63.4628 13.1836C63.5566 13.3711 63.6034 13.5176 63.6034 13.623C63.498 13.9512 63.0292 14.8242 62.1972 16.2422C61.3769 17.6602 60.9198 18.4629 60.8261 18.6504C59.4433 21.5098 58.7519 23.373 58.7519 24.2402C58.7519 24.7324 58.9394 24.9785 59.3144 24.9785C59.9941 24.8848 60.8144 24.3398 61.7753 23.3438C62.1269 22.9805 62.4726 22.6113 62.8124 22.2363C63.164 21.8613 63.3808 21.6445 63.4628 21.5859C63.5448 21.5156 63.6445 21.4805 63.7616 21.4805ZM69.2193 17.4199C71.9849 14.2793 74.3404 12.709 76.2857 12.709C76.7662 12.709 77.1587 12.8555 77.4634 13.1484C77.7798 13.4297 77.938 13.7988 77.938 14.2559C77.938 14.7129 77.6099 15.4805 76.9537 16.5586C76.3091 17.625 75.7115 18.5273 75.1607 19.2656C74.8677 19.6406 74.5337 19.8281 74.1587 19.8281C73.7955 19.8281 73.5084 19.6934 73.2974 19.4238C73.0982 19.1543 72.9986 18.8379 72.9986 18.4746C72.9986 17.666 73.4322 16.752 74.2994 15.7324L74.2642 15.6973C73.8775 15.7324 72.9166 16.4941 71.3814 17.9824C69.858 19.4707 68.5572 20.8066 67.4791 21.9902C66.4127 23.1621 65.2525 24.5918 63.9986 26.2793C63.6353 26.7832 63.3248 27.0352 63.067 27.0352C62.8209 27.0352 62.4927 26.959 62.0826 26.8066C61.6607 26.6426 61.4087 26.5254 61.3267 26.4551C61.233 26.3848 61.1861 26.2676 61.1861 26.1035C61.1861 25.9395 61.233 25.752 61.3267 25.541C61.4205 25.3184 61.5962 25.0078 61.8541 24.6094C62.1002 24.2109 62.4752 23.5664 62.9791 22.6758C63.4947 21.7852 64.2916 20.4375 65.3697 18.6328C66.4478 16.8281 67.0923 15.7383 67.3033 15.3633C67.7486 14.5898 68.1119 14.0273 68.3931 13.6758C68.9205 13.0078 69.8111 12.6738 71.065 12.6738C71.3462 12.6738 71.4869 12.8496 71.4869 13.2012C71.4869 13.752 70.9771 14.7891 69.9576 16.3125L69.2193 17.4199ZM89.8293 13.6406C90.7199 13.6406 91.1652 13.9453 91.1652 14.5547C91.1652 14.8828 91.0891 15.123 90.9367 15.2754C90.7844 15.4277 90.4563 15.9375 89.9523 16.8047C89.4602 17.6602 88.9094 18.7617 88.3 20.1094C87.7023 21.4453 87.3156 22.5879 87.1398 23.5371C87.1047 23.6543 87.0871 23.8184 87.0871 24.0293C87.0871 24.6738 87.2629 24.9961 87.6145 24.9961C87.966 24.9961 88.382 24.832 88.8625 24.5039C89.343 24.1641 89.7707 23.8066 90.1457 23.4316C90.5207 23.0449 90.884 22.6523 91.2355 22.2539C91.5988 21.8555 91.8156 21.627 91.8859 21.5684C91.9563 21.5098 92.0617 21.4805 92.2023 21.4805C92.425 21.4805 92.5598 21.6504 92.6066 21.9902C92.6535 22.3301 92.677 22.6816 92.677 23.0449C92.677 23.4082 92.6418 23.6602 92.5715 23.8008C92.2316 24.4688 91.4816 25.2715 90.3215 26.209C89.173 27.1465 88.1242 27.6152 87.175 27.6152C86.2375 27.6152 85.5461 27.3281 85.1008 26.7539C84.6555 26.1797 84.4328 25.5469 84.4328 24.8555C84.4328 24.1523 84.55 23.5371 84.7844 23.0098C83.8117 24.2754 82.6926 25.3477 81.427 26.2266C80.173 27.1055 79.1477 27.5449 78.3508 27.5449C77.5539 27.5449 76.9035 27.3047 76.3996 26.8242C75.7551 26.2266 75.4328 25.4004 75.4328 24.3457C75.4328 23.2793 75.6672 22.2129 76.1359 21.1465C76.6164 20.0684 77.2434 19.0898 78.0168 18.2109C78.7902 17.3203 79.6398 16.5117 80.5656 15.7852C82.5109 14.2617 84.3039 13.5 85.9445 13.5C86.5773 13.5 87.093 13.6055 87.4914 13.8164C87.8898 14.0273 88.1418 14.291 88.2473 14.6074C88.5285 14.1855 88.7629 13.9219 88.9504 13.8164C89.1496 13.6992 89.4426 13.6406 89.8293 13.6406ZM87.4914 15.5918C85.4875 15.5918 83.4133 16.7051 81.2688 18.9316C80.507 19.7285 79.8039 20.6836 79.1594 21.7969C78.5266 22.9102 78.2102 23.6719 78.2102 24.082C78.2102 24.4922 78.3273 24.6973 78.5617 24.6973C78.8898 24.6973 79.8039 24.0527 81.3039 22.7637C82.8039 21.4629 83.8 20.5078 84.2922 19.8984C84.8313 19.2188 85.8977 17.7832 87.4914 15.5918ZM106.01 0.615234C106.572 0.615234 107.064 0.785156 107.486 1.125C107.92 1.45312 108.137 1.94531 108.137 2.60156C108.137 3.25781 107.773 4.28906 107.047 5.69531C106.32 7.08984 105.447 8.51953 104.428 9.98438C103.408 11.4375 102.254 12.9844 100.965 14.625C98.9256 17.2266 96.9686 19.5645 95.0936 21.6387C95.0819 21.7793 95.0291 22.043 94.9354 22.4297C94.8534 22.8047 94.8123 23.1855 94.8123 23.5723C94.8123 23.959 94.9881 24.3105 95.3397 24.627C95.703 24.9316 96.1483 25.084 96.6756 25.084C97.203 25.084 97.7655 24.8965 98.3631 24.5215C98.9725 24.1465 99.4998 23.7305 99.9452 23.2734C101.117 22.0664 101.844 21.4629 102.125 21.4629C102.406 21.4629 102.547 21.8906 102.547 22.7461V23.0977C102.547 23.5547 102.465 23.8887 102.301 24.0996C101.316 25.3066 100.209 26.209 98.9784 26.8066C97.7479 27.3926 96.5819 27.6855 95.4803 27.6855C94.3788 27.6855 93.5409 27.3516 92.9666 26.6836C92.3924 26.0039 92.1053 25.0781 92.1053 23.9062C92.1053 21.6211 92.7147 18.9375 93.9334 15.8555C95.1639 12.7617 96.5467 10.1309 98.0819 7.96289C101.539 3.06445 104.181 0.615234 106.01 0.615234ZM105.219 3.5332C105.219 3.35742 105.16 3.26953 105.043 3.26953C104.633 3.26953 103.555 4.44141 101.808 6.78516C100.062 9.12891 98.7967 10.998 98.0116 12.3926C97.2381 13.7871 96.5057 15.5391 95.8143 17.6484C97.1971 16.0078 99.1073 13.4531 101.545 9.98438C103.994 6.50391 105.219 4.35352 105.219 3.5332ZM119.887 0.509766L121.241 0.685547C121.534 0.685547 121.68 0.779297 121.68 0.966797C121.68 1.00195 121.657 1.07812 121.61 1.19531C117.977 6.52734 113.934 12.8027 109.481 20.0215C109.235 20.4316 108.995 20.6719 108.76 20.7422C108.749 20.7422 108.737 20.748 108.725 20.7598C108.713 20.7715 108.69 20.7891 108.655 20.8125C108.631 20.8242 108.596 20.8359 108.549 20.8477C108.374 20.918 108.168 20.9531 107.934 20.9531C107.7 20.9531 107.536 20.9883 107.442 21.0586C107.348 21.1289 107.166 21.1641 106.897 21.1641C106.463 21.1641 106.247 20.9414 106.247 20.4961C106.247 19.7109 107.249 17.707 109.252 14.4844C111.268 11.25 113.243 8.25 115.176 5.48438C117.11 2.70703 118.346 1.10742 118.885 0.685547C119.038 0.568359 119.372 0.509766 119.887 0.509766ZM102.625 27.0352C102.625 26.2969 102.936 25.6289 103.557 25.0312C104.178 24.4219 104.829 24.1172 105.508 24.1172C106.2 24.1172 106.545 24.457 106.545 25.1367C106.545 25.8164 106.229 26.4902 105.596 27.1582C104.975 27.8262 104.325 28.1602 103.645 28.1602C102.965 28.1602 102.625 27.7852 102.625 27.0352ZM132.025 0.509766L133.378 0.685547C133.671 0.685547 133.817 0.779297 133.817 0.966797C133.817 1.00195 133.794 1.07812 133.747 1.19531C130.114 6.52734 126.071 12.8027 121.618 20.0215C121.372 20.4316 121.132 20.6719 120.898 20.7422C120.886 20.7422 120.874 20.748 120.862 20.7598C120.851 20.7715 120.827 20.7891 120.792 20.8125C120.769 20.8242 120.734 20.8359 120.687 20.8477C120.511 20.918 120.306 20.9531 120.071 20.9531C119.837 20.9531 119.673 20.9883 119.579 21.0586C119.485 21.1289 119.304 21.1641 119.034 21.1641C118.601 21.1641 118.384 20.9414 118.384 20.4961C118.384 19.7109 119.386 17.707 121.39 14.4844C123.405 11.25 125.38 8.25 127.314 5.48438C129.247 2.70703 130.484 1.10742 131.023 0.685547C131.175 0.568359 131.509 0.509766 132.025 0.509766ZM114.763 27.0352C114.763 26.2969 115.073 25.6289 115.694 25.0312C116.316 24.4219 116.966 24.1172 117.646 24.1172C118.337 24.1172 118.683 24.457 118.683 25.1367C118.683 25.8164 118.366 26.4902 117.734 27.1582C117.112 27.8262 116.462 28.1602 115.782 28.1602C115.103 28.1602 114.763 27.7852 114.763 27.0352Z" fill="white"/>
</svg>
