<svg width="102" height="37" viewBox="0 0 102 37" fill="none" xmlns="http://www.w3.org/2000/svg">
<path d="M23.4962 2.46289C24.1173 2.46289 24.7149 2.7207 25.2891 3.23633C25.8751 3.75195 26.168 4.32617 26.168 4.95898C26.168 5.5918 26.0098 6.41797 25.6934 7.4375C25.377 8.44531 24.9317 9.52344 24.3575 10.6719C23.795 11.8086 23.1036 12.9922 22.2833 14.2227C21.4747 15.4414 20.5899 16.6309 19.629 17.791C18.6798 18.9395 17.6309 20.0352 16.4825 21.0781C15.3458 22.1094 14.1915 23.0117 13.0196 23.7852C10.4649 25.4727 7.96883 26.3164 5.53133 26.3164C4.68758 26.3164 3.93758 26.0938 3.28133 25.6484C2.62508 25.2031 2.11531 24.7637 1.75203 24.3301C0.919998 23.334 0.503983 21.957 0.503983 20.1992C0.503983 18.4297 1.08406 16.3555 2.24422 13.9766C3.41609 11.5977 5.00984 9.35352 7.02547 7.24414C9.05281 5.12305 11.3204 3.38867 13.8282 2.04102C16.336 0.681641 18.7208 0.00195312 20.9825 0.00195312C21.4278 0.00195312 21.8497 0.101562 22.2481 0.300781C22.6466 0.5 22.8458 0.734375 22.8458 1.00391C22.8458 1.26172 22.7813 1.47852 22.6524 1.6543C22.5235 1.81836 22.4005 2 22.2833 2.19922C22.1661 2.38672 22.0665 2.52148 21.9845 2.60352C22.3712 2.50977 22.8751 2.46289 23.4962 2.46289ZM16.9395 10.584C16.9395 10.8184 16.8575 10.9355 16.6934 10.9355C16.5294 10.9355 16.1895 10.6543 15.6739 10.0918C15.1583 9.51758 14.9005 9.03711 14.9005 8.65039C14.9005 7.74805 15.504 6.72266 16.711 5.57422C17.9298 4.42578 19.2833 3.55273 20.7716 2.95508C19.1309 3.04883 17.2266 3.74609 15.0587 5.04688C12.8907 6.34766 10.9923 7.91797 9.36336 9.75781C7.73445 11.5859 6.41609 13.4961 5.40828 15.4883C4.41219 17.4805 3.91414 19.0977 3.91414 20.3398C3.91414 21.1016 4.08406 21.7578 4.4239 22.3086C4.76375 22.8477 5.33797 23.1172 6.14656 23.1172C6.96687 23.1172 7.95125 22.8359 9.09969 22.2734C10.2481 21.7109 11.3673 20.9727 12.4571 20.0586C16.2071 16.8828 19.1368 13.3555 21.2462 9.47656C22.1016 7.88281 22.5294 6.78125 22.5294 6.17188C22.5294 5.92578 22.4473 5.80273 22.2833 5.80273C21.8028 5.80273 21.1231 6.11328 20.2442 6.73438C19.3653 7.34375 18.586 8.01758 17.9063 8.75586C17.2266 9.49414 16.8868 10.0273 16.8868 10.3555L16.9395 10.584ZM27.6706 16.4199C30.4362 13.2793 32.7917 11.709 34.737 11.709C35.2175 11.709 35.6101 11.8555 35.9148 12.1484C36.2312 12.4297 36.3894 12.7988 36.3894 13.2559C36.3894 13.7129 36.0612 14.4805 35.405 15.5586C34.7605 16.625 34.1628 17.5273 33.612 18.2656C33.3191 18.6406 32.9851 18.8281 32.6101 18.8281C32.2468 18.8281 31.9597 18.6934 31.7487 18.4238C31.5495 18.1543 31.4499 17.8379 31.4499 17.4746C31.4499 16.666 31.8835 15.752 32.7507 14.7324L32.7155 14.6973C32.3288 14.7324 31.3679 15.4941 29.8327 16.9824C28.3093 18.4707 27.0085 19.8066 25.9304 20.9902C24.864 22.1621 23.7038 23.5918 22.4499 25.2793C22.0866 25.7832 21.7761 26.0352 21.5183 26.0352C21.2722 26.0352 20.9441 25.959 20.5339 25.8066C20.112 25.6426 19.8601 25.5254 19.778 25.4551C19.6843 25.3848 19.6374 25.2676 19.6374 25.1035C19.6374 24.9395 19.6843 24.752 19.778 24.541C19.8718 24.3184 20.0476 24.0078 20.3054 23.6094C20.5515 23.2109 20.9265 22.5664 21.4304 21.6758C21.946 20.7852 22.7429 19.4375 23.821 17.6328C24.8991 15.8281 25.5437 14.7383 25.7546 14.3633C26.1999 13.5898 26.5632 13.0273 26.8445 12.6758C27.3718 12.0078 28.2624 11.6738 29.5163 11.6738C29.7976 11.6738 29.9382 11.8496 29.9382 12.2012C29.9382 12.752 29.4284 13.7891 28.4089 15.3125L27.6706 16.4199ZM40.3353 14.3281C41.472 13.543 42.5853 12.9395 43.6752 12.5176C44.765 12.0957 45.7084 11.8848 46.5052 11.8848C47.3021 11.8848 47.8119 12.1133 48.0345 12.5703C48.4916 12.043 49.0599 11.7617 49.7396 11.7266C49.9388 11.7148 50.1849 11.709 50.4779 11.709C50.7709 11.709 50.9525 11.75 51.0228 11.832C51.0931 11.9023 51.1576 12.043 51.2162 12.2539C51.2748 12.4648 51.3099 12.582 51.3216 12.6055C51.3334 12.6289 51.3392 12.6699 51.3392 12.7285C51.3392 12.7754 51.3099 12.8398 51.2513 12.9219C51.1927 12.9922 51.1224 13.0625 51.0404 13.1328C50.9701 13.2031 50.9291 13.2441 50.9173 13.2559C48.3275 16.9707 45.6791 21.207 42.972 25.9648C45.7611 23.4922 48.2572 21.7168 50.4603 20.6387C50.6009 20.5684 50.7357 20.5332 50.8646 20.5332C51.0521 20.5332 51.1752 20.6562 51.2337 20.9023C51.2923 21.1367 51.3216 21.4766 51.3216 21.9219C51.3216 22.3672 51.2923 22.6426 51.2337 22.748C51.1869 22.8535 50.9173 23.0645 50.4252 23.3809C49.933 23.6973 49.2943 24.1074 48.5091 24.6113C47.724 25.1152 46.892 25.6719 46.013 26.2812C43.9037 27.7461 42.1693 29.2871 40.8099 30.9043C39.0521 33.0254 37.7923 34.7363 37.0306 36.0371C36.7494 36.541 36.2748 36.793 35.6068 36.793C34.2826 36.793 33.6205 36.166 33.6205 34.9121C33.6205 33.6348 34.2474 32.3281 35.5013 30.9922C36.4388 29.9961 37.3002 29.1816 38.0853 28.5488C38.8705 27.916 39.2982 27.5586 39.3685 27.4766C40.2357 26.1758 41.4134 24.3301 42.9017 21.9395C41.6361 23.2637 40.4056 24.3184 39.2103 25.1035C38.0267 25.8887 37.142 26.2812 36.556 26.2812C34.763 26.2812 33.8666 25.5137 33.8666 23.9785C33.8666 22.7598 34.1771 21.5293 34.7982 20.2871C35.4193 19.0449 36.2162 17.9375 37.1888 16.9648C38.1615 15.9805 39.2103 15.1016 40.3353 14.3281ZM47.0326 13.8711C45.6732 14.1641 44.3959 14.6504 43.2005 15.3301C42.0052 15.998 41.0209 16.7188 40.2474 17.4922C39.474 18.2539 38.806 19.0391 38.2435 19.8477C37.1888 21.3594 36.6615 22.5312 36.6615 23.3633C36.6615 23.5625 36.7084 23.6621 36.8021 23.6621C36.9076 23.6621 37.1302 23.5566 37.4701 23.3457C37.8216 23.1348 38.3138 22.7773 38.9466 22.2734C39.5795 21.7578 40.2826 21.1484 41.056 20.4453C42.849 18.793 44.8412 16.6016 47.0326 13.8711ZM63.7227 12.6406C64.6133 12.6406 65.0586 12.9453 65.0586 13.5547C65.0586 13.8828 64.9824 14.123 64.8301 14.2754C64.6777 14.4277 64.3496 14.9375 63.8457 15.8047C63.3535 16.6602 62.8027 17.7617 62.1934 19.1094C61.5957 20.4453 61.209 21.5879 61.0332 22.5371C60.998 22.6543 60.9805 22.8184 60.9805 23.0293C60.9805 23.6738 61.1562 23.9961 61.5078 23.9961C61.8594 23.9961 62.2754 23.832 62.7559 23.5039C63.2363 23.1641 63.6641 22.8066 64.0391 22.4316C64.4141 22.0449 64.7773 21.6523 65.1289 21.2539C65.4922 20.8555 65.709 20.627 65.7793 20.5684C65.8496 20.5098 65.9551 20.4805 66.0957 20.4805C66.3184 20.4805 66.4531 20.6504 66.5 20.9902C66.5469 21.3301 66.5703 21.6816 66.5703 22.0449C66.5703 22.4082 66.5352 22.6602 66.4648 22.8008C66.125 23.4688 65.375 24.2715 64.2148 25.209C63.0664 26.1465 62.0176 26.6152 61.0684 26.6152C60.1309 26.6152 59.4395 26.3281 58.9941 25.7539C58.5488 25.1797 58.3262 24.5469 58.3262 23.8555C58.3262 23.1523 58.4434 22.5371 58.6777 22.0098C57.7051 23.2754 56.5859 24.3477 55.3203 25.2266C54.0664 26.1055 53.041 26.5449 52.2441 26.5449C51.4473 26.5449 50.7969 26.3047 50.293 25.8242C49.6484 25.2266 49.3262 24.4004 49.3262 23.3457C49.3262 22.2793 49.5605 21.2129 50.0293 20.1465C50.5098 19.0684 51.1367 18.0898 51.9102 17.2109C52.6836 16.3203 53.5332 15.5117 54.459 14.7852C56.4043 13.2617 58.1973 12.5 59.8379 12.5C60.4707 12.5 60.9863 12.6055 61.3848 12.8164C61.7832 13.0273 62.0352 13.291 62.1406 13.6074C62.4219 13.1855 62.6562 12.9219 62.8438 12.8164C63.043 12.6992 63.3359 12.6406 63.7227 12.6406ZM61.3848 14.5918C59.3809 14.5918 57.3066 15.7051 55.1621 17.9316C54.4004 18.7285 53.6973 19.6836 53.0527 20.7969C52.4199 21.9102 52.1035 22.6719 52.1035 23.082C52.1035 23.4922 52.2207 23.6973 52.4551 23.6973C52.7832 23.6973 53.6973 23.0527 55.1973 21.7637C56.6973 20.4629 57.6934 19.5078 58.1855 18.8984C58.7246 18.2188 59.791 16.7832 61.3848 14.5918ZM74.5065 23.293C74.5065 23.8086 74.858 24.0664 75.5612 24.0664C75.9362 24.0664 76.4049 23.8789 76.9674 23.5039C77.5416 23.1289 78.0573 22.7188 78.5143 22.2734C79.733 21.0664 80.4245 20.4629 80.5885 20.4629C80.8932 20.4629 81.0455 20.9023 81.0455 21.7812C81.0455 22.6602 80.7702 23.2637 80.2194 23.5918C78.5436 25.1035 77.2487 26.0234 76.3346 26.3516C75.819 26.5273 75.2506 26.6094 74.6295 26.5977C74.0084 26.5859 73.3932 26.3164 72.7838 25.7891C72.1745 25.2617 71.8698 24.623 71.8698 23.873C71.8698 23.1113 72.069 22.25 72.4674 21.2891C72.8659 20.3281 73.2702 19.5078 73.6803 18.8281C74.1022 18.1367 74.6178 17.3398 75.2272 16.4375C75.8366 15.5234 76.1588 14.9551 76.194 14.7324L76.1588 14.6973C75.7721 14.7324 74.8112 15.4941 73.276 16.9824C71.7526 18.4707 70.4928 19.7656 69.4967 20.8672C68.5006 21.9688 67.3112 23.4395 65.9284 25.2793C65.5416 25.7832 65.2252 26.0352 64.9791 26.0352C64.733 26.0352 64.4049 25.959 63.9948 25.8066C63.5729 25.6426 63.3151 25.5254 63.2213 25.4551C63.1276 25.3848 63.0807 25.2793 63.0807 25.1387C63.0807 24.998 63.1217 24.8281 63.2038 24.6289C63.2858 24.418 63.3678 24.248 63.4498 24.1191C63.5202 23.9785 63.6432 23.7676 63.819 23.4863C63.9948 23.2051 64.3405 22.6133 64.8561 21.7109C65.3834 20.7969 66.1862 19.4375 67.2643 17.6328C68.3424 15.8281 68.987 14.7383 69.1979 14.3633C69.6432 13.5898 70.0065 13.0273 70.2877 12.6758C70.8151 12.0078 71.7057 11.6738 72.9596 11.6738C73.2409 11.6738 73.3815 11.8496 73.3815 12.2012C73.3815 12.752 72.8717 13.7891 71.8522 15.3125L71.1139 16.4199C73.1413 14.1699 74.8522 12.7461 76.2467 12.1484C76.9264 11.8555 77.5358 11.709 78.0748 11.709C78.6256 11.709 79.0592 11.8555 79.3756 12.1484C79.7038 12.4414 79.8678 12.7695 79.8678 13.1328C79.8678 13.4844 79.7448 13.9121 79.4987 14.416C79.2526 14.9082 79.0006 15.3535 78.7428 15.752C78.4967 16.1387 78.1686 16.6309 77.7584 17.2285C77.3483 17.8262 77.1256 18.1543 77.0905 18.2129C77.0553 18.2598 76.9616 18.4004 76.8092 18.6348C76.6686 18.8574 76.5631 19.0215 76.4928 19.127C76.4225 19.2324 76.3053 19.4199 76.1413 19.6895C75.9772 19.9473 75.8424 20.1641 75.737 20.3398C75.6432 20.5156 75.5202 20.7324 75.3678 20.9902C75.2272 21.248 75.11 21.4707 75.0163 21.6582C74.9342 21.8457 74.8463 22.0508 74.7526 22.2734C74.5885 22.6836 74.5065 23.0234 74.5065 23.293ZM91.1966 6.69922C91.1966 7.36719 90.886 8.04102 90.2649 8.7207C89.6438 9.38867 88.9934 9.72266 88.3138 9.72266C87.6458 9.72266 87.3118 9.37109 87.3118 8.66797C87.3118 7.96484 87.6048 7.29688 88.1907 6.66406C88.7884 6.01953 89.4446 5.69727 90.1595 5.69727C90.4759 5.69727 90.7278 5.78516 90.9153 5.96094C91.1028 6.13672 91.1966 6.38281 91.1966 6.69922ZM88.3489 22.0449C88.3489 22.3965 88.3138 22.6484 88.2434 22.8008C87.6692 23.9727 86.7552 24.9219 85.5013 25.6484C84.2473 26.3633 83.1575 26.7207 82.2317 26.7207C81.3059 26.7207 80.5091 26.4102 79.8411 25.7891C79.1731 25.168 78.8391 24.5352 78.8391 23.8906C78.8391 23.2461 79.1614 22.3086 79.8059 21.0781C80.4505 19.8477 81.095 18.7109 81.7395 17.668C82.3841 16.625 82.7063 16.0625 82.7063 15.9805C82.7063 15.8867 82.5833 15.7109 82.3372 15.4531C82.1028 15.1953 81.9856 15.0078 81.9856 14.8906C81.9856 14.7617 82.2259 14.4395 82.7063 13.9238C83.1985 13.3965 83.7903 12.8809 84.4817 12.377C85.1848 11.8613 85.718 11.6035 86.0813 11.6035C86.4563 11.6035 86.7903 11.7676 87.0833 12.0957C87.3763 12.4238 87.5227 12.7227 87.5227 12.9922C87.5227 13.2617 86.1282 15.7988 83.3391 20.6035C83.304 20.6738 83.2044 20.832 83.0403 21.0781C82.888 21.3125 82.7649 21.5117 82.6712 21.6758C82.5891 21.8281 82.4895 22.0156 82.3723 22.2383C82.138 22.707 82.0208 23.0996 82.0208 23.416C82.0208 23.8145 82.2903 24.0137 82.8294 24.0137C83.3684 24.0137 83.9251 23.832 84.4993 23.4688C85.0852 23.0938 85.5891 22.6836 86.011 22.2383C87.1126 21.0547 87.7395 20.4629 87.8919 20.4629C88.1966 20.4629 88.3489 20.9902 88.3489 22.0449ZM98.8515 22.0977C99.4609 21.7109 99.8534 21.4473 100.029 21.3066C100.205 21.1543 100.41 20.9785 100.644 20.7793C100.879 20.5801 101.072 20.4805 101.225 20.4805C101.459 20.4805 101.576 20.75 101.576 21.2891C101.576 21.8164 101.312 22.3906 100.785 23.0117C100.269 23.6211 99.6249 24.1426 98.8515 24.5762C98.078 24.998 97.2519 25.3672 96.373 25.6836C94.6269 26.3281 93.1386 26.6504 91.9081 26.6504C90.6894 26.6504 89.5878 26.252 88.6034 25.4551C87.6191 24.6465 87.1269 23.5977 87.1269 22.3086C87.1269 21.0078 87.4491 19.7129 88.0937 18.4238C88.7382 17.123 89.5644 15.9863 90.5722 15.0137C91.5917 14.0293 92.7695 13.2324 94.1054 12.623C95.453 12.0137 96.7831 11.709 98.0956 11.709C98.7284 11.709 99.2968 11.8906 99.8007 12.2539C100.305 12.6172 100.557 13.1152 100.557 13.748C100.557 14.3809 100.24 15.1426 99.6073 16.0332C98.9863 16.9121 98.3534 17.3516 97.7089 17.3516C96.9589 17.3516 96.5839 16.9941 96.5839 16.2793C96.5839 16.0918 96.7597 15.7578 97.1113 15.2773C97.4628 14.7969 97.6386 14.4746 97.6386 14.3105C97.6386 14.1348 97.5741 14.0469 97.4452 14.0469C96.8007 14.0469 96.1093 14.2695 95.371 14.7148C94.6327 15.1602 93.9589 15.6289 93.3495 16.1211C92.7519 16.6133 92.1835 17.1641 91.6445 17.7734C90.4726 19.0977 89.8866 20.4746 89.8866 21.9043C89.8866 22.4785 90.0683 22.9766 90.4316 23.3984C90.8066 23.8086 91.4277 24.0137 92.2948 24.0137C93.1738 24.0137 94.0527 23.9141 94.9316 23.7148C95.8105 23.5039 96.5312 23.2812 97.0937 23.0469C97.6679 22.8008 98.2538 22.4844 98.8515 22.0977Z" fill="#7EB693"/>
</svg>
