<svg width="148" height="28" viewBox="0 0 148 28" fill="none" xmlns="http://www.w3.org/2000/svg">
<path d="M3.79179 21.4102L3.7039 21.7793C3.7039 21.8496 3.7332 21.9141 3.79179 21.9727C3.86211 22.0312 3.94414 22.0605 4.03789 22.0605C4.13164 22.0605 4.20781 22.0137 4.2664 21.9199C6.0125 19.5996 7.45976 17.5605 8.6082 15.8027C9.75664 14.0332 10.5945 12.7324 11.1219 11.9004C11.6609 11.0684 12.0887 10.4062 12.4051 9.91406C13.2488 8.625 14.0867 7.4707 14.9187 6.45117C11.7547 7.24805 9.27617 7.64648 7.4832 7.64648C5.69023 7.64648 4.40117 7.53516 3.61601 7.3125C2.83086 7.07812 2.31523 6.82031 2.06914 6.53906C1.82304 6.24609 1.7 5.95312 1.7 5.66016C1.7 5.35547 1.71172 5.0625 1.73515 4.78125C1.78203 4.19531 2.13359 3.71484 2.78984 3.33984C3.45781 2.96484 4.00859 2.77734 4.44218 2.77734C4.87578 2.77734 5.09258 2.8418 5.09258 2.9707C5.09258 3.09961 4.99297 3.27539 4.79375 3.49805C4.60625 3.70898 4.5125 3.85547 4.5125 3.9375C4.5125 4.3125 5.86601 4.5 8.57304 4.5C11.2801 4.5 14.3914 4.14258 17.907 3.42773C19.9227 1.78711 21.6629 0.966797 23.1277 0.966797C24.1004 0.966797 24.7449 1.24219 25.0613 1.79297C25.2723 2.12109 25.3777 2.44922 25.3777 2.77734C25.3777 3.10547 25.1844 3.43359 24.7977 3.76172C24.4227 4.08984 23.9129 4.37109 23.2684 4.60547C22.0965 5.02734 20.7137 5.36133 19.1199 5.60742C18.452 6.46289 17.5027 7.79297 16.2723 9.59766C15.0535 11.4023 14.2215 12.6211 13.7762 13.2539C13.3309 13.8867 12.6102 15.0117 11.6141 16.6289C10.6297 18.2461 9.77422 19.6465 9.04765 20.8301C8.32109 22.002 7.54765 23.1621 6.72734 24.3105C5.05156 26.6777 3.55742 27.8613 2.24492 27.8613C1.69414 27.8613 1.21953 27.7148 0.821091 27.4219C0.422653 27.1289 0.223434 26.6543 0.223434 25.998C0.223434 25.3301 0.586716 24.5039 1.31328 23.5195C2.05156 22.5234 2.59062 21.8848 2.93047 21.6035C3.27031 21.3223 3.49883 21.1816 3.61601 21.1816C3.7332 21.1816 3.79179 21.2578 3.79179 21.4102ZM28.392 13.8516C28.392 14.625 28.0756 15.3047 27.4428 15.8906C26.8217 16.4766 26.1127 16.7695 25.3159 16.7695C25.058 16.7695 24.8881 16.7109 24.8061 16.5938C24.7241 16.4648 24.683 16.3008 24.683 16.1016C24.683 15.9023 24.7065 15.709 24.7534 15.5215C24.3315 15.6621 23.8627 15.8789 23.3471 16.1719C22.8315 16.4648 22.1987 16.8984 21.4487 17.4727C20.6987 18.0469 20.3237 18.4746 20.3237 18.7559C20.3237 18.8496 20.4584 18.8965 20.728 18.8965C21.0092 18.8965 21.437 18.8027 22.0112 18.6152C22.5854 18.416 22.9838 18.3164 23.2065 18.3164C23.4409 18.3164 23.5932 18.3281 23.6635 18.3516C23.8159 18.4336 23.9799 18.6152 24.1557 18.8965C24.3315 19.166 24.4194 19.3828 24.4194 19.5469C24.4194 19.6992 24.267 19.9043 23.9623 20.1621C23.6577 20.4199 23.312 20.6191 22.9252 20.7598C22.5385 20.8887 22.2807 20.9883 22.1518 21.0586C19.6791 22.4414 18.4428 23.3906 18.4428 23.9062C18.4428 24.8203 19.2221 25.2773 20.7807 25.2773C21.7768 25.2773 22.7787 24.9609 23.7866 24.3281C24.642 23.7891 25.4096 23.2441 26.0893 22.6934C26.7807 22.1309 27.2143 21.7852 27.3901 21.6562C27.5776 21.5273 27.7182 21.4629 27.812 21.4629C28.1166 21.4629 28.269 21.8027 28.269 22.4824C28.269 23.1621 28.228 23.6133 28.1459 23.8359C28.0639 24.0469 27.8295 24.3105 27.4428 24.627C24.935 26.666 22.562 27.6855 20.3237 27.6855C19.1284 27.6855 18.1733 27.5215 17.4584 27.1934C16.1459 26.5957 15.4897 25.6816 15.4897 24.4512C15.4897 22.834 16.6088 21.6094 18.8471 20.7773C18.4018 20.5781 18.1147 20.3262 17.9858 20.0215C17.8569 19.7051 17.7924 19.207 17.7924 18.5273C17.7924 17.8359 18.1088 17.1094 18.7416 16.3477C19.3862 15.5742 20.1713 14.9414 21.0971 14.4492C23.1596 13.3359 24.9995 12.7793 26.6166 12.7793C27.0034 12.7793 27.3959 12.873 27.7944 13.0605C28.1928 13.248 28.392 13.5117 28.392 13.8516ZM30.0177 23.4844L30.0001 23.7656C30.0001 24.0586 30.1114 24.3105 30.3341 24.5215C30.5567 24.7324 30.7618 24.8379 30.9493 24.8379C32.3555 24.8379 33.5977 24.627 34.6759 24.2051C35.7657 23.7832 36.3106 23.3613 36.3106 22.9395C36.3106 22.7402 36.1114 22.5703 35.713 22.4297C35.3262 22.2773 34.6641 22.0957 33.7266 21.8848C32.8009 21.6621 32.127 21.4922 31.7052 21.375C31.2833 21.2461 30.9493 21.1289 30.7032 21.0234C30.4571 20.918 30.2052 20.7715 29.9473 20.584C29.3966 20.1973 29.1212 19.623 29.1212 18.8613C29.1212 18.0879 29.4024 17.3262 29.9649 16.5762C30.5391 15.8145 31.254 15.1641 32.1095 14.625C32.9649 14.0859 33.8848 13.6113 34.8692 13.2012C36.8145 12.3926 38.4493 11.9883 39.7735 11.9883C41.0743 11.9883 41.877 12.2695 42.1817 12.832C42.2755 13.0312 42.3223 13.2539 42.3223 13.5V13.623C42.3223 14.2441 42.1876 14.7305 41.918 15.082C41.6602 15.4336 41.2442 15.75 40.67 16.0312C40.1075 16.3125 39.6563 16.4531 39.3165 16.4531C38.9884 16.4531 38.7774 16.4297 38.6837 16.3828C38.6016 16.3359 38.5313 16.2773 38.4727 16.207C38.4141 16.125 38.338 16.0664 38.2442 16.0312C38.1622 15.9961 38.1212 15.9082 38.1212 15.7676C38.1212 15.627 38.1798 15.4863 38.297 15.3457C38.4141 15.1934 38.4962 15.0352 38.543 14.8711C37.7696 14.9062 36.961 15.0879 36.1173 15.416C35.2735 15.7324 34.547 16.0898 33.9376 16.4883C33.3399 16.8867 32.8419 17.2676 32.4434 17.6309C32.045 17.9941 31.8458 18.2637 31.8458 18.4395C31.8458 18.6035 32.1153 18.7383 32.6544 18.8438C35.0802 19.3242 36.6739 19.7402 37.4356 20.0918C38.1973 20.4434 38.7247 20.8418 39.0177 21.2871C39.3106 21.7324 39.4571 22.1367 39.4571 22.5C39.4571 23.25 39.1583 23.959 38.5606 24.627C37.963 25.2949 37.2247 25.8398 36.3458 26.2617C34.4591 27.1875 32.8126 27.6504 31.4063 27.6504C30.0118 27.6504 29.045 27.4336 28.5059 27C27.9786 26.5781 27.7149 26.0742 27.7149 25.4883C27.7149 24.9023 27.8614 24.3633 28.1544 23.8711C28.4591 23.3672 28.8458 23.1152 29.3145 23.1152C29.7833 23.1152 30.0177 23.2383 30.0177 23.4844ZM53.7917 4.35938L54.5124 4.53516C54.6179 4.53516 54.7116 4.58789 54.7937 4.69336C54.8757 4.79883 54.9167 4.89844 54.9167 4.99219C54.9167 5.08594 54.7937 5.33789 54.5476 5.74805C54.3015 6.1582 54.0085 6.62695 53.6687 7.1543C53.3405 7.66992 53.1648 7.95117 53.1413 7.99805C54.0554 7.92773 54.6999 7.89258 55.0749 7.89258C55.4616 7.89258 55.7253 7.92188 55.8659 7.98047C56.0066 8.02734 56.1648 8.17383 56.3405 8.41992C56.528 8.6543 56.698 8.83594 56.8503 8.96484C57.0027 9.08203 57.0788 9.26367 57.0788 9.50977C57.0788 9.75586 56.9265 9.9668 56.6218 10.1426C56.3288 10.3066 56.0124 10.4062 55.6726 10.4414C52.9538 10.7109 51.4538 10.8516 51.1726 10.8633C50.2234 12.3164 48.8933 14.584 47.1823 17.666C45.4831 20.7363 44.5808 22.6582 44.4753 23.4316C44.4284 23.7832 44.405 24.0703 44.405 24.293C44.405 24.75 44.6452 24.9785 45.1257 24.9785C45.6062 24.9785 46.1394 24.7969 46.7253 24.4336C47.3112 24.0586 47.8503 23.6543 48.3425 23.2207C49.655 22.0488 50.3581 21.4629 50.4519 21.4629C50.7566 21.4629 50.9089 21.9902 50.9089 23.0449C50.9089 23.6191 50.6452 24.1348 50.1179 24.5918C48.9343 25.6113 47.9382 26.3789 47.1296 26.8945C46.321 27.4102 45.5124 27.668 44.7038 27.668C44.528 27.668 44.364 27.6504 44.2116 27.6152C43.2741 27.4395 42.5827 27.0996 42.1374 26.5957C41.7038 26.0801 41.487 25.3887 41.487 24.5215C41.4987 23.6543 41.7566 22.6055 42.2605 21.375C42.7761 20.1328 43.4206 18.8145 44.1941 17.4199C45.4597 15.1465 46.7253 13.0137 47.9909 11.0215L47.323 11.1094C45.9636 11.2617 45.1726 11.3379 44.9499 11.3379H44.7917C44.4519 11.3379 44.1237 11.2734 43.8073 11.1445C43.4909 11.0039 43.3327 10.834 43.3327 10.6348C43.3327 10.4355 43.4148 10.2422 43.5788 10.0547C43.7546 9.86719 43.8601 9.7207 43.8952 9.61523C43.9773 9.35742 44.282 9.07031 44.8093 8.75391C45.3484 8.4375 45.7527 8.27344 46.0222 8.26172C46.2917 8.23828 46.5495 8.2207 46.7956 8.20898C47.0534 8.19727 47.3347 8.18555 47.6394 8.17383C47.9558 8.16211 48.196 8.15039 48.3601 8.13867L49.9421 8.06836C50.9265 6.5918 51.6003 5.64258 51.9636 5.2207C52.3386 4.79883 52.5554 4.57031 52.614 4.53516C52.6726 4.48828 52.7898 4.46484 52.9655 4.46484L53.7917 4.35938ZM61.2357 7.69922C61.2357 8.36719 60.9252 9.04102 60.3041 9.7207C59.683 10.3887 59.0326 10.7227 58.3529 10.7227C57.6849 10.7227 57.3509 10.3711 57.3509 9.66797C57.3509 8.96484 57.6439 8.29688 58.2298 7.66406C58.8275 7.01953 59.4837 6.69727 60.1986 6.69727C60.515 6.69727 60.7669 6.78516 60.9544 6.96094C61.1419 7.13672 61.2357 7.38281 61.2357 7.69922ZM58.388 23.0449C58.388 23.3965 58.3529 23.6484 58.2826 23.8008C57.7084 24.9727 56.7943 25.9219 55.5404 26.6484C54.2865 27.3633 53.1966 27.7207 52.2709 27.7207C51.3451 27.7207 50.5482 27.4102 49.8802 26.7891C49.2123 26.168 48.8783 25.5352 48.8783 24.8906C48.8783 24.2461 49.2005 23.3086 49.8451 22.0781C50.4896 20.8477 51.1341 19.7109 51.7787 18.668C52.4232 17.625 52.7455 17.0625 52.7455 16.9805C52.7455 16.8867 52.6224 16.7109 52.3763 16.4531C52.1419 16.1953 52.0248 16.0078 52.0248 15.8906C52.0248 15.7617 52.265 15.4395 52.7455 14.9238C53.2377 14.3965 53.8294 13.8809 54.5209 13.377C55.224 12.8613 55.7572 12.6035 56.1205 12.6035C56.4955 12.6035 56.8294 12.7676 57.1224 13.0957C57.4154 13.4238 57.5619 13.7227 57.5619 13.9922C57.5619 14.2617 56.1673 16.7988 53.3783 21.6035C53.3431 21.6738 53.2435 21.832 53.0794 22.0781C52.9271 22.3125 52.8041 22.5117 52.7103 22.6758C52.6283 22.8281 52.5287 23.0156 52.4115 23.2383C52.1771 23.707 52.0599 24.0996 52.0599 24.416C52.0599 24.8145 52.3294 25.0137 52.8685 25.0137C53.4076 25.0137 53.9642 24.832 54.5384 24.4688C55.1244 24.0938 55.6283 23.6836 56.0502 23.2383C57.1517 22.0547 57.7787 21.4629 57.931 21.4629C58.2357 21.4629 58.388 21.9902 58.388 23.0449ZM57.4648 27.1055L56.6035 27.0703H56.2871C56.1699 27.0352 56.0469 26.9648 55.918 26.8594C55.7773 26.7539 55.6719 26.6777 55.6016 26.6309C55.5312 26.584 55.4961 26.502 55.4961 26.3848C55.4961 26.2559 55.543 26.0391 55.6367 25.7344C57.9219 20.707 60.1309 16.6875 62.2637 13.6758C62.498 13.3477 62.873 13.1016 63.3887 12.9375C63.916 12.7617 64.4258 12.6738 64.918 12.6738C65.2109 12.6738 65.3574 12.9023 65.3574 13.3594C65.3574 13.4883 65.3105 13.6641 65.2168 13.8867C65.123 14.0977 64.8887 14.4492 64.5137 14.9414C64.1387 15.4336 63.6934 15.9961 63.1777 16.6289C62.6621 17.2617 62.3691 17.625 62.2988 17.7188C63.9043 16.0547 65.3516 14.8184 66.6406 14.0098C67.9414 13.1895 68.8789 12.7793 69.4531 12.7793C70.0391 12.7793 70.4844 12.9492 70.7891 13.2891C71.1055 13.6172 71.2637 13.9746 71.2637 14.3613C71.2637 14.7363 71.2344 15.0527 71.1758 15.3105C71.1289 15.5566 71.0352 15.8203 70.8945 16.1016C70.7539 16.3711 70.6309 16.6055 70.5254 16.8047C70.4316 16.9922 70.2676 17.2441 70.0332 17.5605C69.7988 17.8652 69.6348 18.0762 69.541 18.1934C69.459 18.3105 69.2773 18.5332 68.9961 18.8613C68.7266 19.1895 68.5801 19.3711 68.5566 19.4062C68.8848 19.0781 69.3418 18.5918 69.9277 17.9473C70.5137 17.3027 71.0059 16.7637 71.4043 16.3301C71.8145 15.8965 72.3242 15.4102 72.9336 14.8711C73.543 14.3203 74.1113 13.875 74.6387 13.5352C75.9043 12.7383 77.1875 12.3398 78.4883 12.3398C78.9336 12.3398 79.3086 12.4805 79.6133 12.7617C79.918 13.043 80.0703 13.3828 80.0703 13.7812C80.0703 14.168 79.5957 15.1055 78.6465 16.5938C77.6973 18.0703 76.748 19.5586 75.7988 21.0586C74.8613 22.5469 74.3926 23.4844 74.3926 23.8711C74.3926 24.4102 74.4922 24.7324 74.6914 24.8379C74.8906 24.9316 75.1309 24.9668 75.4121 24.9434C75.6934 24.9199 76.0859 24.7383 76.5898 24.3984C77.1055 24.0586 77.5625 23.707 77.9609 23.3438C78.6055 22.7578 79.2031 22.1895 79.7539 21.6387C79.8711 21.5332 80 21.4805 80.1406 21.4805C80.3633 21.4805 80.498 21.6504 80.5449 21.9902C80.5918 22.3301 80.6152 22.6816 80.6152 23.0449C80.6152 23.4082 80.5801 23.6602 80.5098 23.8008C80.1699 24.457 79.4199 25.2598 78.2598 26.209C77.0996 27.1582 75.9863 27.6328 74.9199 27.6328C74.791 27.6328 74.6973 27.627 74.6387 27.6152C73.4316 27.498 72.5938 27.1699 72.125 26.6309C71.668 26.0801 71.4395 25.4297 71.4395 24.6797C71.4395 23.9297 71.6914 23.0215 72.1953 21.9551C72.7109 20.8887 73.2734 19.9219 73.8828 19.0547C74.4922 18.1875 75.0488 17.4082 75.5527 16.7168C76.0684 16.0137 76.3262 15.6328 76.3262 15.5742C76.3262 15.5156 76.2793 15.4863 76.1855 15.4863C75.8223 15.4863 75.0137 16.0723 73.7598 17.2441C71.6152 19.248 69.7637 21.1816 68.2051 23.0449C67.7949 23.5371 66.8223 24.7852 65.2871 26.7891C65.1113 27.0234 64.8301 27.1406 64.4434 27.1406C64.0684 27.1406 63.6758 27.0703 63.2656 26.9297C62.8555 26.7773 62.6504 26.584 62.6504 26.3496C62.6504 26.2324 63.582 24.5918 65.4453 21.4277C67.3086 18.252 68.2402 16.5234 68.2402 16.2422C68.2402 15.9492 68.0645 15.8027 67.7129 15.8027C67.373 15.8027 66.6641 16.3184 65.5859 17.3496C62.6211 20.1855 60.3242 23.0039 58.6953 25.8047C58.5898 25.9688 58.3848 26.2266 58.0801 26.5781C57.7754 26.9297 57.5703 27.1055 57.4648 27.1055ZM91.6627 13.6055C92.0143 13.6055 92.3717 13.7637 92.735 14.0801C93.11 14.3965 93.2975 14.8828 93.2975 15.5391C93.2975 16.1836 93.069 17.0273 92.612 18.0703C92.1549 19.1016 91.528 20.1562 90.7311 21.2344C89.9342 22.3008 89.0553 23.3086 88.0944 24.2578C87.1452 25.1953 86.1139 25.9688 85.0006 26.5781C83.8991 27.1758 82.8971 27.4746 81.9948 27.4746C81.0924 27.4746 80.3659 27.1934 79.8151 26.6309C79.276 26.0566 79.0065 25.2656 79.0065 24.2578C79.0065 23.2383 79.2526 22.1133 79.7448 20.8828C80.2487 19.6523 80.8932 18.5684 81.6784 17.6309C82.4635 16.6816 83.3131 15.832 84.2272 15.082C86.1373 13.5469 87.8131 12.7793 89.2545 12.7793C89.8991 12.7793 90.3854 12.9375 90.7135 13.2539C90.8307 13.3594 90.8893 13.4531 90.8893 13.5352V13.6406C91.0534 13.6172 91.3112 13.6055 91.6627 13.6055ZM89.8873 15.9434H89.7643C89.3541 15.9434 89.1491 15.6445 89.1491 15.0469C88.2936 15.3281 87.3971 15.8203 86.4596 16.5234C85.5221 17.2266 84.6842 18.0586 83.9459 19.0195C82.4459 20.9414 81.6842 22.5645 81.6608 23.8887C81.6608 24.5449 81.901 24.873 82.3815 24.873C82.862 24.873 83.5768 24.5566 84.526 23.9238C85.4752 23.291 86.4127 22.3887 87.3385 21.2168C88.276 20.0449 88.9733 19.0312 89.4303 18.1758C89.8991 17.3086 90.1334 16.7227 90.1334 16.418C90.1334 16.1016 90.0514 15.9434 89.8873 15.9434ZM102.447 24.293C102.447 24.8086 102.798 25.0664 103.501 25.0664C103.876 25.0664 104.345 24.8789 104.907 24.5039C105.482 24.1289 105.997 23.7188 106.454 23.2734C107.673 22.0664 108.365 21.4629 108.529 21.4629C108.833 21.4629 108.986 21.9023 108.986 22.7812C108.986 23.6602 108.71 24.2637 108.159 24.5918C106.484 26.1035 105.189 27.0234 104.275 27.3516C103.759 27.5273 103.191 27.6094 102.57 27.5977C101.949 27.5859 101.333 27.3164 100.724 26.7891C100.115 26.2617 99.8098 25.623 99.8098 24.873C99.8098 24.1113 100.009 23.25 100.407 22.2891C100.806 21.3281 101.21 20.5078 101.62 19.8281C102.042 19.1367 102.558 18.3398 103.167 17.4375C103.777 16.5234 104.099 15.9551 104.134 15.7324L104.099 15.6973C103.712 15.7324 102.751 16.4941 101.216 17.9824C99.6926 19.4707 98.4329 20.7656 97.4368 21.8672C96.4407 22.9688 95.2512 24.4395 93.8684 26.2793C93.4817 26.7832 93.1653 27.0352 92.9192 27.0352C92.6731 27.0352 92.345 26.959 91.9348 26.8066C91.513 26.6426 91.2551 26.5254 91.1614 26.4551C91.0676 26.3848 91.0208 26.2793 91.0208 26.1387C91.0208 25.998 91.0618 25.8281 91.1438 25.6289C91.2259 25.418 91.3079 25.248 91.3899 25.1191C91.4602 24.9785 91.5833 24.7676 91.7591 24.4863C91.9348 24.2051 92.2805 23.6133 92.7962 22.7109C93.3235 21.7969 94.1262 20.4375 95.2044 18.6328C96.2825 16.8281 96.927 15.7383 97.138 15.3633C97.5833 14.5898 97.9466 14.0273 98.2278 13.6758C98.7551 13.0078 99.6458 12.6738 100.9 12.6738C101.181 12.6738 101.322 12.8496 101.322 13.2012C101.322 13.752 100.812 14.7891 99.7923 16.3125L99.054 17.4199C101.081 15.1699 102.792 13.7461 104.187 13.1484C104.866 12.8555 105.476 12.709 106.015 12.709C106.566 12.709 106.999 12.8555 107.316 13.1484C107.644 13.4414 107.808 13.7695 107.808 14.1328C107.808 14.4844 107.685 14.9121 107.439 15.416C107.193 15.9082 106.941 16.3535 106.683 16.752C106.437 17.1387 106.109 17.6309 105.699 18.2285C105.288 18.8262 105.066 19.1543 105.031 19.2129C104.995 19.2598 104.902 19.4004 104.749 19.6348C104.609 19.8574 104.503 20.0215 104.433 20.127C104.363 20.2324 104.245 20.4199 104.081 20.6895C103.917 20.9473 103.782 21.1641 103.677 21.3398C103.583 21.5156 103.46 21.7324 103.308 21.9902C103.167 22.248 103.05 22.4707 102.956 22.6582C102.874 22.8457 102.786 23.0508 102.693 23.2734C102.529 23.6836 102.447 24.0234 102.447 24.293ZM119.137 7.69922C119.137 8.36719 118.826 9.04102 118.205 9.7207C117.584 10.3887 116.934 10.7227 116.254 10.7227C115.586 10.7227 115.252 10.3711 115.252 9.66797C115.252 8.96484 115.545 8.29688 116.131 7.66406C116.728 7.01953 117.385 6.69727 118.1 6.69727C118.416 6.69727 118.668 6.78516 118.855 6.96094C119.043 7.13672 119.137 7.38281 119.137 7.69922ZM116.289 23.0449C116.289 23.3965 116.254 23.6484 116.184 23.8008C115.609 24.9727 114.695 25.9219 113.441 26.6484C112.187 27.3633 111.098 27.7207 110.172 27.7207C109.246 27.7207 108.449 27.4102 107.781 26.7891C107.113 26.168 106.779 25.5352 106.779 24.8906C106.779 24.2461 107.101 23.3086 107.746 22.0781C108.391 20.8477 109.035 19.7109 109.68 18.668C110.324 17.625 110.646 17.0625 110.646 16.9805C110.646 16.8867 110.523 16.7109 110.277 16.4531C110.043 16.1953 109.926 16.0078 109.926 15.8906C109.926 15.7617 110.166 15.4395 110.646 14.9238C111.139 14.3965 111.73 13.8809 112.422 13.377C113.125 12.8613 113.658 12.6035 114.021 12.6035C114.396 12.6035 114.73 12.7676 115.023 13.0957C115.316 13.4238 115.463 13.7227 115.463 13.9922C115.463 14.2617 114.068 16.7988 111.279 21.6035C111.244 21.6738 111.144 21.832 110.98 22.0781C110.828 22.3125 110.705 22.5117 110.611 22.6758C110.529 22.8281 110.43 23.0156 110.312 23.2383C110.078 23.707 109.961 24.0996 109.961 24.416C109.961 24.8145 110.23 25.0137 110.769 25.0137C111.309 25.0137 111.865 24.832 112.439 24.4688C113.025 24.0938 113.529 23.6836 113.951 23.2383C115.053 22.0547 115.68 21.4629 115.832 21.4629C116.137 21.4629 116.289 21.9902 116.289 23.0449ZM128.778 13.6406C129.669 13.6406 130.114 13.9453 130.114 14.5547C130.114 14.8828 130.038 15.123 129.885 15.2754C129.733 15.4277 129.405 15.9375 128.901 16.8047C128.409 17.6602 127.858 18.7617 127.249 20.1094C126.651 21.4453 126.264 22.5879 126.088 23.5371C126.053 23.6543 126.036 23.8184 126.036 24.0293C126.036 24.6738 126.211 24.9961 126.563 24.9961C126.915 24.9961 127.331 24.832 127.811 24.5039C128.292 24.1641 128.719 23.8066 129.094 23.4316C129.469 23.0449 129.833 22.6523 130.184 22.2539C130.547 21.8555 130.764 21.627 130.835 21.5684C130.905 21.5098 131.01 21.4805 131.151 21.4805C131.374 21.4805 131.508 21.6504 131.555 21.9902C131.602 22.3301 131.626 22.6816 131.626 23.0449C131.626 23.4082 131.59 23.6602 131.52 23.8008C131.18 24.4688 130.43 25.2715 129.27 26.209C128.122 27.1465 127.073 27.6152 126.124 27.6152C125.186 27.6152 124.495 27.3281 124.049 26.7539C123.604 26.1797 123.381 25.5469 123.381 24.8555C123.381 24.1523 123.499 23.5371 123.733 23.0098C122.76 24.2754 121.641 25.3477 120.376 26.2266C119.122 27.1055 118.096 27.5449 117.299 27.5449C116.502 27.5449 115.852 27.3047 115.348 26.8242C114.704 26.2266 114.381 25.4004 114.381 24.3457C114.381 23.2793 114.616 22.2129 115.085 21.1465C115.565 20.0684 116.192 19.0898 116.965 18.2109C117.739 17.3203 118.588 16.5117 119.514 15.7852C121.46 14.2617 123.252 13.5 124.893 13.5C125.526 13.5 126.042 13.6055 126.44 13.8164C126.838 14.0273 127.09 14.291 127.196 14.6074C127.477 14.1855 127.711 13.9219 127.899 13.8164C128.098 13.6992 128.391 13.6406 128.778 13.6406ZM126.44 15.5918C124.436 15.5918 122.362 16.7051 120.217 18.9316C119.456 19.7285 118.752 20.6836 118.108 21.7969C117.475 22.9102 117.159 23.6719 117.159 24.082C117.159 24.4922 117.276 24.6973 117.51 24.6973C117.838 24.6973 118.752 24.0527 120.252 22.7637C121.752 21.4629 122.749 20.5078 123.241 19.8984C123.78 19.2188 124.846 17.7832 126.44 15.5918ZM144.958 0.615234C145.521 0.615234 146.013 0.785156 146.435 1.125C146.868 1.45312 147.085 1.94531 147.085 2.60156C147.085 3.25781 146.722 4.28906 145.995 5.69531C145.269 7.08984 144.396 8.51953 143.376 9.98438C142.357 11.4375 141.202 12.9844 139.913 14.625C137.874 17.2266 135.917 19.5645 134.042 21.6387C134.03 21.7793 133.978 22.043 133.884 22.4297C133.802 22.8047 133.761 23.1855 133.761 23.5723C133.761 23.959 133.937 24.3105 134.288 24.627C134.652 24.9316 135.097 25.084 135.624 25.084C136.152 25.084 136.714 24.8965 137.312 24.5215C137.921 24.1465 138.448 23.7305 138.894 23.2734C140.066 22.0664 140.792 21.4629 141.073 21.4629C141.355 21.4629 141.495 21.8906 141.495 22.7461V23.0977C141.495 23.5547 141.413 23.8887 141.249 24.0996C140.265 25.3066 139.157 26.209 137.927 26.8066C136.696 27.3926 135.53 27.6855 134.429 27.6855C133.327 27.6855 132.489 27.3516 131.915 26.6836C131.341 26.0039 131.054 25.0781 131.054 23.9062C131.054 21.6211 131.663 18.9375 132.882 15.8555C134.113 12.7617 135.495 10.1309 137.03 7.96289C140.488 3.06445 143.13 0.615234 144.958 0.615234ZM144.167 3.5332C144.167 3.35742 144.109 3.26953 143.991 3.26953C143.581 3.26953 142.503 4.44141 140.757 6.78516C139.011 9.12891 137.745 10.998 136.96 12.3926C136.187 13.7871 135.454 15.5391 134.763 17.6484C136.146 16.0078 138.056 13.4531 140.493 9.98438C142.943 6.50391 144.167 4.35352 144.167 3.5332Z" fill="#7EB693"/>
</svg>
